<svg width="15" height="14" viewBox="0 0 15 14" fill="none" xmlns="http://www.w3.org/2000/svg">
<path d="M7.50177 3.40576C5.51669 3.40576 3.90961 5.0146 3.90961 6.99793C3.90961 8.98301 5.51844 10.5901 7.50177 10.5901C9.48686 10.5901 11.0939 8.98126 11.0939 6.99793C11.0939 5.01285 9.48511 3.40576 7.50177 3.40576ZM7.50177 9.32951C6.21319 9.32951 5.17019 8.28593 5.17019 6.99793C5.17019 5.70993 6.21377 4.66635 7.50177 4.66635C8.78977 4.66635 9.83336 5.70993 9.83336 6.99793C9.83394 8.28593 8.79036 9.32951 7.50177 9.32951Z" fill="#969696"/>
<path d="M7.50177 3.40576C5.51669 3.40576 3.90961 5.0146 3.90961 6.99793C3.90961 8.98301 5.51844 10.5901 7.50177 10.5901C9.48686 10.5901 11.0939 8.98126 11.0939 6.99793C11.0939 5.01285 9.48511 3.40576 7.50177 3.40576ZM7.50177 9.32951C6.21319 9.32951 5.17019 8.28593 5.17019 6.99793C5.17019 5.70993 6.21377 4.66635 7.50177 4.66635C8.78977 4.66635 9.83336 5.70993 9.83336 6.99793C9.83394 8.28593 8.79036 9.32951 7.50177 9.32951Z" fill="url(#paint0_linear_932_382)"/>
<path d="M10.3862 0.0449521C9.09822 -0.0151312 5.90797 -0.0122146 4.6188 0.0449521C3.48597 0.0980355 2.48672 0.371619 1.68114 1.1772C0.334805 2.52354 0.506888 4.3377 0.506888 6.99829C0.506888 9.72129 0.355222 11.4935 1.68114 12.8194C3.03272 14.1704 4.87314 13.9936 7.50222 13.9936C10.1996 13.9936 11.1306 13.9954 12.0843 13.6261C13.3811 13.1227 14.3599 11.9636 14.4556 9.8817C14.5162 8.59312 14.5127 5.40345 14.4556 4.11429C14.3401 1.6567 13.0211 0.166285 10.3862 0.0449521ZM12.425 11.9286C11.5424 12.8112 10.318 12.7325 7.4853 12.7325C4.56864 12.7325 3.39906 12.7756 2.54564 11.9199C1.56272 10.9416 1.74064 9.3707 1.74064 6.98895C1.74064 3.76604 1.40989 1.44495 4.64447 1.27929C5.38764 1.25304 5.60639 1.24429 7.47714 1.24429L7.50339 1.26179C10.612 1.26179 13.0509 0.936285 13.1973 4.17029C13.2306 4.9082 13.2381 5.12987 13.2381 6.9977C13.2376 9.88054 13.2924 11.0571 12.425 11.9286Z" fill="#969696"/>
<path d="M10.3862 0.0449521C9.09822 -0.0151312 5.90797 -0.0122146 4.6188 0.0449521C3.48597 0.0980355 2.48672 0.371619 1.68114 1.1772C0.334805 2.52354 0.506888 4.3377 0.506888 6.99829C0.506888 9.72129 0.355222 11.4935 1.68114 12.8194C3.03272 14.1704 4.87314 13.9936 7.50222 13.9936C10.1996 13.9936 11.1306 13.9954 12.0843 13.6261C13.3811 13.1227 14.3599 11.9636 14.4556 9.8817C14.5162 8.59312 14.5127 5.40345 14.4556 4.11429C14.3401 1.6567 13.0211 0.166285 10.3862 0.0449521ZM12.425 11.9286C11.5424 12.8112 10.318 12.7325 7.4853 12.7325C4.56864 12.7325 3.39906 12.7756 2.54564 11.9199C1.56272 10.9416 1.74064 9.3707 1.74064 6.98895C1.74064 3.76604 1.40989 1.44495 4.64447 1.27929C5.38764 1.25304 5.60639 1.24429 7.47714 1.24429L7.50339 1.26179C10.612 1.26179 13.0509 0.936285 13.1973 4.17029C13.2306 4.9082 13.2381 5.12987 13.2381 6.9977C13.2376 9.88054 13.2924 11.0571 12.425 11.9286Z" fill="url(#paint1_linear_932_382)"/>
<path d="M11.2377 4.10364C11.7013 4.10364 12.0771 3.72782 12.0771 3.26422C12.0771 2.80062 11.7013 2.4248 11.2377 2.4248C10.7741 2.4248 10.3983 2.80062 10.3983 3.26422C10.3983 3.72782 10.7741 4.10364 11.2377 4.10364Z" fill="#969696"/>
<path d="M11.2377 4.10364C11.7013 4.10364 12.0771 3.72782 12.0771 3.26422C12.0771 2.80062 11.7013 2.4248 11.2377 2.4248C10.7741 2.4248 10.3983 2.80062 10.3983 3.26422C10.3983 3.72782 10.7741 4.10364 11.2377 4.10364Z" fill="url(#paint2_linear_932_382)"/>
<defs>
<linearGradient id="paint0_linear_932_382" x1="10.1959" y1="2.8666" x2="5.70582" y2="12.5653" gradientUnits="userSpaceOnUse">
<stop stop-color="#405DE6"/>
<stop offset="0.065" stop-color="#5B51D8"/>
<stop offset="0.1496" stop-color="#833AB4"/>
<stop offset="0.29" stop-color="#C13584"/>
<stop offset="0.425" stop-color="#E1306C"/>
<stop offset="0.565" stop-color="#FD1D1D"/>
<stop offset="0.705" stop-color="#F56040"/>
<stop offset="0.8499" stop-color="#FCAF45"/>
<stop offset="1" stop-color="#FFDC80"/>
</linearGradient>
<linearGradient id="paint1_linear_932_382" x1="12.7498" y1="-1.04971" x2="3.99975" y2="17.8503" gradientUnits="userSpaceOnUse">
<stop stop-color="#405DE6"/>
<stop offset="0.065" stop-color="#5B51D8"/>
<stop offset="0.1496" stop-color="#833AB4"/>
<stop offset="0.29" stop-color="#C13584"/>
<stop offset="0.425" stop-color="#E1306C"/>
<stop offset="0.565" stop-color="#FD1D1D"/>
<stop offset="0.705" stop-color="#F56040"/>
<stop offset="0.8499" stop-color="#FCAF45"/>
<stop offset="1" stop-color="#FFDC80"/>
</linearGradient>
<linearGradient id="paint2_linear_932_382" x1="11.8672" y1="2.29881" x2="10.818" y2="4.56521" gradientUnits="userSpaceOnUse">
<stop stop-color="#405DE6"/>
<stop offset="0.065" stop-color="#5B51D8"/>
<stop offset="0.1496" stop-color="#833AB4"/>
<stop offset="0.29" stop-color="#C13584"/>
<stop offset="0.425" stop-color="#E1306C"/>
<stop offset="0.565" stop-color="#FD1D1D"/>
<stop offset="0.705" stop-color="#F56040"/>
<stop offset="0.8499" stop-color="#FCAF45"/>
<stop offset="1" stop-color="#FFDC80"/>
</linearGradient>
</defs>
</svg>
