<svg width="15" height="14" viewBox="0 0 15 14" fill="none" xmlns="http://www.w3.org/2000/svg">
<g clip-path="url(#clip0_932_2176)">
<path d="M10.3862 0.0449521C9.09822 -0.0151312 5.90797 -0.0122146 4.6188 0.0449521C3.48597 0.0980355 2.48672 0.371619 1.68114 1.1772C0.334805 2.52354 0.506888 4.3377 0.506888 6.99829C0.506888 9.72129 0.355222 11.4935 1.68114 12.8194C3.03272 14.1704 4.87314 13.9936 7.50222 13.9936C10.1996 13.9936 11.1306 13.9954 12.0843 13.6261C13.3811 13.1227 14.3599 11.9636 14.4556 9.8817C14.5162 8.59312 14.5127 5.40345 14.4556 4.11429C14.3401 1.6567 13.0211 0.166285 10.3862 0.0449521ZM12.425 11.9286C11.5424 12.8112 10.318 12.7325 7.4853 12.7325C4.56864 12.7325 3.39906 12.7756 2.54564 11.9199C1.56272 10.9416 1.74064 9.3707 1.74064 6.98895C1.74064 3.76604 1.40989 1.44495 4.64447 1.27929C5.38764 1.25304 5.60639 1.24429 7.47714 1.24429L7.50339 1.26179C10.612 1.26179 13.0509 0.936285 13.1973 4.17029C13.2306 4.9082 13.2381 5.12987 13.2381 6.9977C13.2376 9.88054 13.2924 11.0571 12.425 11.9286Z" fill="#969696"/>
<path d="M10.3862 0.0449521C9.09822 -0.0151312 5.90797 -0.0122146 4.6188 0.0449521C3.48597 0.0980355 2.48672 0.371619 1.68114 1.1772C0.334805 2.52354 0.506888 4.3377 0.506888 6.99829C0.506888 9.72129 0.355222 11.4935 1.68114 12.8194C3.03272 14.1704 4.87314 13.9936 7.50222 13.9936C10.1996 13.9936 11.1306 13.9954 12.0843 13.6261C13.3811 13.1227 14.3599 11.9636 14.4556 9.8817C14.5162 8.59312 14.5127 5.40345 14.4556 4.11429C14.3401 1.6567 13.0211 0.166285 10.3862 0.0449521ZM12.425 11.9286C11.5424 12.8112 10.318 12.7325 7.4853 12.7325C4.56864 12.7325 3.39906 12.7756 2.54564 11.9199C1.56272 10.9416 1.74064 9.3707 1.74064 6.98895C1.74064 3.76604 1.40989 1.44495 4.64447 1.27929C5.38764 1.25304 5.60639 1.24429 7.47714 1.24429L7.50339 1.26179C10.612 1.26179 13.0509 0.936285 13.1973 4.17029C13.2306 4.9082 13.2381 5.12987 13.2381 6.9977C13.2376 9.88054 13.2924 11.0571 12.425 11.9286Z" fill="#FF0000"/>
<path d="M9.5 6.13397C10.1667 6.51888 10.1667 7.48113 9.5 7.86603L7.25 9.16506C6.58333 9.54996 5.75 9.06884 5.75 8.29904L5.75 5.70096C5.75 4.93116 6.58333 4.45004 7.25 4.83494L9.5 6.13397Z" fill="#969696"/>
<path d="M9.5 6.13397C10.1667 6.51888 10.1667 7.48113 9.5 7.86603L7.25 9.16506C6.58333 9.54996 5.75 9.06884 5.75 8.29904L5.75 5.70096C5.75 4.93116 6.58333 4.45004 7.25 4.83494L9.5 6.13397Z" fill="#FF0000"/>
</g>
<defs>
<clipPath id="clip0_932_2176">
<rect width="14" height="14" fill="white" transform="translate(0.5)"/>
</clipPath>
</defs>
</svg>
