<svg width="132" height="46" viewBox="0 0 132 46" fill="none" xmlns="http://www.w3.org/2000/svg">
<path d="M25.8187 21.0464V23.8261L20.2397 24.9521V22.1724L25.8187 21.0464Z" fill="#1F1F1F"/>
<path d="M20.2401 24.9522V32.7831C20.2401 33.3109 19.9313 33.7957 19.4543 34.0185C19.2705 34.1045 19.0712 34.1475 18.8796 34.1475C18.5629 34.1475 18.2501 34.0381 17.9999 33.8269L17.5112 33.4164V25.5034L20.2401 24.9522Z" fill="#1F1F1F"/>
<path d="M20.2403 22.1724V24.9561L17.5114 25.5073L13.332 26.3518L15.5566 28.2245L17.5075 29.8626V33.4242L12.1396 28.9165L9.43027 26.6411C9.43027 26.6411 9.41854 26.6294 9.41072 26.6254C9.39508 26.6098 9.37162 26.5942 9.35598 26.5746C9.33644 26.559 9.3208 26.5394 9.30125 26.5238C9.28561 26.5082 9.26997 26.4886 9.25433 26.4691C9.25433 26.4691 9.25043 26.4691 9.24652 26.4612C9.23088 26.4456 9.21524 26.4261 9.20351 26.4104C9.18787 26.3909 9.17223 26.3713 9.1605 26.3518C9.14487 26.3283 9.13314 26.3088 9.12141 26.2853C9.10968 26.2658 9.09795 26.2462 9.08622 26.2228C9.07058 26.1993 9.06276 26.1798 9.05495 26.1563C9.05495 26.1563 9.05495 26.1563 9.05104 26.1485C9.0354 26.1094 9.01585 26.0664 9.00412 26.0273C9.00021 26.0116 8.99239 25.9999 8.98848 25.9882C8.98848 25.9804 8.98066 25.9725 8.98066 25.9608C8.97675 25.9452 8.97284 25.9295 8.96893 25.9178C8.96893 25.9139 8.96893 25.91 8.96893 25.9022C8.96893 25.8865 8.96112 25.867 8.95721 25.8513C8.9533 25.824 8.94939 25.8044 8.94548 25.781C8.94548 25.7614 8.94157 25.7341 8.93766 25.7145C8.93375 25.6559 8.92984 25.5933 8.93375 25.5347C8.93375 25.5229 8.93375 25.5112 8.93375 25.4995C8.93375 25.4565 8.94157 25.4135 8.94548 25.3705C8.94548 25.3548 8.9533 25.3431 8.9533 25.3275C8.95721 25.3001 8.96503 25.2727 8.97284 25.2454C8.98066 25.2141 8.98848 25.1828 9.00021 25.1515C9.00021 25.1437 9.00803 25.132 9.01194 25.1203C9.01976 25.1046 9.02758 25.0851 9.03149 25.0694C9.03931 25.046 9.05104 25.0225 9.06276 25.003C9.06667 24.9912 9.07449 24.9795 9.0784 24.9639C9.08622 24.9482 9.09404 24.9326 9.10577 24.913C9.11359 24.8974 9.12532 24.8818 9.13705 24.8661C9.13705 24.8661 9.13705 24.8661 9.13705 24.8622C9.14487 24.8466 9.1566 24.8309 9.16832 24.8153C9.19569 24.7723 9.22697 24.7332 9.26215 24.6941C9.26997 24.6863 9.27779 24.6785 9.28561 24.6667C9.3208 24.6276 9.35989 24.5925 9.39899 24.5534C9.41463 24.5416 9.42636 24.5338 9.43809 24.5221C9.44591 24.5143 9.45763 24.5065 9.46936 24.4986C9.48109 24.4947 9.48891 24.483 9.50064 24.4752C9.51237 24.4634 9.52801 24.4556 9.53974 24.4478C9.57101 24.4243 9.61011 24.4048 9.64529 24.3853C9.65311 24.3774 9.66093 24.3735 9.67266 24.3696C9.68439 24.3657 9.69221 24.3618 9.70394 24.354C9.75476 24.3305 9.80559 24.3071 9.86423 24.2914C9.87596 24.2875 9.8916 24.2836 9.90333 24.2758C9.94242 24.2601 9.98543 24.2523 10.0284 24.2445L17.5192 22.7315L20.2481 22.1802L20.2403 22.1724Z" fill="#1F1F1F"/>
<path d="M25.8189 28.0171L28.5438 27.4659V32.5757C28.5438 33.3264 27.9339 33.9402 27.1794 33.9402C26.4248 33.9402 25.8149 33.3303 25.8149 32.5757" fill="#1F1F1F"/>
<path d="M20.2401 13.4227V22.1723L17.5112 22.7236V13.4227C17.5112 12.672 18.1211 12.0582 18.8757 12.0582C19.6302 12.0582 20.2401 12.6681 20.2401 13.4227Z" fill="#1F1F1F"/>
<path d="M28.5487 16.1869V23.275V27.4661L25.8198 28.0173V16.7381L28.5487 16.1869Z" fill="#1F1F1F"/>
<path d="M37.1338 20.4169V20.4717C37.1338 20.4717 37.1338 20.4951 37.1338 20.5069C37.1338 20.5577 37.126 20.6085 37.1142 20.6593C37.1142 20.6789 37.1064 20.6984 37.1025 20.7141C37.0947 20.7571 37.083 20.7962 37.0712 20.8353C37.0673 20.8509 37.0634 20.8665 37.0556 20.8822C37.0478 20.9017 37.0439 20.9174 37.0361 20.9369C37.0282 20.9604 37.0165 20.9838 37.0048 21.0034C37.0009 21.0151 36.993 21.0268 36.9852 21.0425C36.9774 21.0581 36.9657 21.0737 36.9579 21.0933C36.95 21.1089 36.9383 21.1246 36.9305 21.1402C36.9305 21.1402 36.9305 21.1415 36.9305 21.1441C36.9305 21.1441 36.9109 21.1754 36.8992 21.191C36.8797 21.2184 36.8601 21.2458 36.8406 21.2731C36.8328 21.281 36.821 21.2927 36.8132 21.3005C36.7389 21.3904 36.6529 21.4686 36.5591 21.5351C36.5356 21.5507 36.5122 21.5664 36.4887 21.582C36.4613 21.6015 36.4301 21.6133 36.3988 21.6289C36.3871 21.6367 36.3753 21.6406 36.3636 21.6485C36.2659 21.6954 36.1564 21.7306 36.043 21.754L28.5562 23.2709V20.4912L31.9419 19.807H31.9458L32.7316 19.6467H32.7277L36.1447 18.9508L36.6334 19.3653C36.6334 19.3653 36.6529 19.377 36.6568 19.3848C36.6764 19.4004 36.692 19.4161 36.7076 19.4317C36.7272 19.4513 36.7467 19.4669 36.7624 19.4865C36.778 19.506 36.7937 19.5177 36.8093 19.5373C36.8093 19.5412 36.8171 19.5451 36.8171 19.549C36.8288 19.5686 36.8445 19.5842 36.8601 19.6037C36.8875 19.6428 36.9188 19.6819 36.9422 19.7288C36.954 19.7484 36.9657 19.7719 36.9774 19.7914C36.9891 19.8149 37.0009 19.8344 37.0087 19.8579C37.0165 19.8696 37.0204 19.8852 37.0282 19.897C37.0361 19.9126 37.04 19.9282 37.0478 19.9439C37.0556 19.9595 37.0595 19.9751 37.0673 19.9947C37.0751 20.0182 37.0791 20.0377 37.0869 20.0612C37.0869 20.0651 37.0869 20.0729 37.0908 20.0768C37.0908 20.0885 37.0986 20.1003 37.0986 20.112C37.1025 20.1276 37.1064 20.1394 37.1064 20.155C37.1064 20.155 37.1064 20.1563 37.1064 20.1589C37.1064 20.1589 37.1064 20.1667 37.1064 20.1706C37.1103 20.1863 37.1142 20.2019 37.1142 20.2215C37.1142 20.2254 37.1142 20.2293 37.1142 20.2371C37.1142 20.2566 37.1182 20.2762 37.1221 20.2918C37.1221 20.3153 37.126 20.3348 37.126 20.3544C37.126 20.3778 37.126 20.4013 37.126 20.4208L37.1338 20.4169Z" fill="#1F1F1F"/>
<path d="M36.1363 18.9508L32.7193 19.6468L32.3752 19.3574L30.4986 17.7819L28.5477 16.1438V16.1907L25.8228 16.7419V18.728V13.2155C25.8228 12.6877 26.1316 12.2029 26.6125 11.9801C27.0895 11.7533 27.6564 11.8315 28.0629 12.1716L33.9195 17.0899L34.2909 17.4027L36.1402 18.9548L36.1363 18.9508Z" fill="#1F1F1F"/>
<path d="M52.5288 19.8043C53.1328 19.8043 53.6987 19.9304 54.2236 20.1855C54.7484 20.4376 55.2029 20.7836 55.5841 21.2235C55.9682 21.6633 56.2673 22.1735 56.4814 22.7629C56.6954 23.3522 56.8068 23.9768 56.8068 24.6424V29.2577H54.3057V27.5717C54.3057 27.1025 54.3057 26.6187 54.3145 26.1173C54.3203 25.6159 54.3233 25.1878 54.3233 24.8301C54.3233 24.4723 54.2676 24.1439 54.1561 23.8097C54.0447 23.4754 53.8893 23.1822 53.6899 22.93C53.4905 22.6778 53.2589 22.4726 52.9921 22.3172C52.7252 22.1618 52.4437 22.0855 52.1447 22.0855C51.8456 22.0855 51.5875 22.1383 51.3266 22.2439C51.0656 22.3494 50.8369 22.5019 50.6375 22.7072C50.4381 22.9124 50.2798 23.1675 50.1625 23.4754C50.0452 23.7833 49.9866 24.1498 49.9866 24.5691V29.2577H47.4297V15.7315H49.9866L50.0042 20.7719C50.3267 20.464 50.6932 20.2265 51.1067 20.0594C51.5201 19.8923 51.9922 19.8102 52.5229 19.8102L52.5288 19.8043Z" fill="#1F1F1F"/>
<path d="M66.8326 20.0653V29.2548H64.6276L64.3696 28.2725C64.0119 28.7534 63.5808 29.0759 63.0824 29.2372C62.581 29.3985 62.059 29.4777 61.5166 29.4777C60.8627 29.4777 60.2587 29.3516 59.7103 29.0994C59.1591 28.8472 58.6811 28.5012 58.2736 28.0614C57.866 27.6216 57.5493 27.1114 57.3206 26.522C57.0919 25.9356 56.9775 25.3081 56.9775 24.6425C56.9775 23.9769 57.0919 23.3494 57.3206 22.7629C57.5493 22.1765 57.866 21.6634 58.2736 21.2235C58.6811 20.7837 59.1591 20.4377 59.7103 20.1855C60.2587 19.9334 60.8627 19.8044 61.5166 19.8044C62.1089 19.8044 62.6543 19.8982 63.1469 20.0829C63.6395 20.2676 64.05 20.5638 64.3696 20.9714L64.6276 20.0624H66.8326V20.0653ZM64.2758 24.6777C64.2758 24.1968 64.2113 23.7921 64.0822 23.4637C63.9532 23.1353 63.7802 22.8714 63.5632 22.6662C63.3463 22.4639 63.0941 22.3143 62.8038 22.2205C62.5135 22.1266 62.2027 22.0827 61.8684 22.0827C61.5342 22.0827 61.2234 22.1501 60.9331 22.285C60.6428 22.4199 60.3877 22.6046 60.1648 22.8304C59.942 23.0591 59.769 23.3318 59.6458 23.6455C59.5227 23.9593 59.4611 24.2906 59.4611 24.6366C59.4611 24.9826 59.5227 25.3286 59.6458 25.6365C59.769 25.9444 59.942 26.2141 60.1648 26.4428C60.3877 26.6715 60.6428 26.8533 60.9331 26.9882C61.2234 27.1231 61.5342 27.1935 61.8684 27.1935C62.537 27.1935 63.1 26.9853 63.5632 26.5719C64.0265 26.1584 64.264 25.5251 64.2758 24.6718V24.6777Z" fill="#1F1F1F"/>
<path d="M73.5755 24.4373C74.2558 24.9182 74.5959 25.6043 74.5959 26.4927C74.5959 26.9003 74.4992 27.2844 74.3086 27.6422C74.118 27.9999 73.8541 28.3166 73.5198 28.5863C73.1855 28.859 72.7985 29.0701 72.3528 29.2255C71.9071 29.381 71.4321 29.4572 70.9248 29.4572C70.5407 29.4572 70.1683 29.4073 69.8047 29.3077C69.4411 29.208 69.1039 29.0731 68.796 28.9001C68.4882 28.7271 68.2184 28.5218 67.9897 28.2785C67.761 28.038 67.5909 27.7682 67.4795 27.4721C67.7639 27.3372 68.0777 27.1847 68.4237 27.0176C68.7697 26.8505 69.0717 26.7009 69.3326 26.5631C69.4441 26.7478 69.6171 26.9179 69.8516 27.0733C70.0862 27.2287 70.4088 27.305 70.8163 27.305C71.2239 27.305 71.5464 27.2053 71.7429 27.0088C71.9394 26.8124 72.0391 26.6247 72.0391 26.4517C72.0391 26.3285 71.9716 26.2142 71.8338 26.1086C71.6989 26.0031 71.5435 25.921 71.3705 25.8594C71.1242 25.7597 70.919 25.7069 70.7606 25.7011C70.5993 25.6952 70.4146 25.66 70.2035 25.5984C69.5379 25.4372 69.0277 25.226 68.6758 24.9592C68.324 24.6924 68.0659 24.4255 67.9076 24.1529C67.7463 23.8802 67.6584 23.6221 67.6378 23.3758C67.6173 23.1295 67.6114 22.9301 67.6114 22.7835C67.6114 22.3877 67.6965 22.0124 67.8695 21.6546C68.0425 21.2969 68.28 20.9861 68.582 20.7193C68.884 20.4524 69.2359 20.2413 69.6376 20.08C70.0393 19.9188 70.4674 19.8396 70.9248 19.8396C71.3089 19.8396 71.6725 19.8953 72.0185 20.0067C72.3645 20.1182 72.6783 20.2736 72.9627 20.47C73.2471 20.6665 73.4905 20.904 73.6957 21.1737C73.901 21.4464 74.0505 21.7485 74.1502 22.0827L72.1681 22.7513C72.0948 22.5284 71.9423 22.3496 71.7136 22.2147C71.4849 22.0798 71.2415 22.0094 70.9805 22.0094C70.7196 22.0094 70.5114 22.0974 70.3501 22.2675C70.1888 22.4405 70.1097 22.6135 70.1097 22.7865C70.1097 22.9976 70.1859 23.1588 70.3413 23.2761C70.4967 23.3934 70.6668 23.4785 70.8515 23.5254C70.9864 23.5488 71.1213 23.5723 71.2503 23.5899C71.3793 23.6075 71.5054 23.6309 71.6315 23.6544C72.0625 23.7541 72.4378 23.8655 72.7516 23.9887C73.0653 24.1118 73.3409 24.2613 73.5755 24.4343V24.4373Z" fill="#1F1F1F"/>
<path d="M80.3237 19.8043C80.9277 19.8043 81.4936 19.9304 82.0185 20.1855C82.5434 20.4376 82.9979 20.7836 83.379 21.2235C83.7632 21.6633 84.0622 22.1735 84.2763 22.7629C84.4903 23.3522 84.6018 23.9768 84.6018 24.6424V29.2577H82.1006V27.5717C82.1006 27.1025 82.1006 26.6187 82.1094 26.1173C82.1153 25.6159 82.1182 25.1878 82.1182 24.8301C82.1182 24.4723 82.0625 24.1439 81.9511 23.8097C81.8396 23.4754 81.6842 23.1822 81.4848 22.93C81.2855 22.6778 81.0538 22.4726 80.787 22.3172C80.5202 22.1618 80.2387 22.0855 79.9396 22.0855C79.6405 22.0855 79.3825 22.1383 79.1215 22.2439C78.8605 22.3494 78.6318 22.5019 78.4324 22.7072C78.233 22.9124 78.0747 23.1675 77.9574 23.4754C77.8401 23.7833 77.7815 24.1498 77.7815 24.5691V29.2577H75.2246V15.7315H77.7815L77.7991 20.7719C78.1216 20.464 78.4881 20.2265 78.9016 20.0594C79.315 19.8923 79.7871 19.8102 80.3178 19.8102L80.3237 19.8043Z" fill="#1F1F1F"/>
<path d="M86.0208 17.6287C86.2143 17.1654 86.4724 16.7813 86.7949 16.4793C87.1174 16.1773 87.4928 15.9544 87.915 15.8137C88.3372 15.6729 88.7829 15.5996 89.2521 15.5996C89.5365 15.5996 89.8209 15.6231 90.1054 15.6729C90.3898 15.7228 90.6742 15.7961 90.9586 15.8958L90.7534 17.7665L90.1435 17.6727C90.0438 17.6609 89.9558 17.6521 89.8737 17.6463C89.7945 17.6404 89.7154 17.6375 89.6421 17.6375C89.1729 17.6375 88.8299 17.7518 88.6129 17.9806C88.3959 18.2093 88.2874 18.5406 88.2874 18.9716V20.0653H90.7504V22.3437H88.2874V29.2548H85.7305V22.3437H84.5254V20.9919L85.7305 20.0653V19.2883C85.7305 18.6462 85.8273 18.092 86.0208 17.6287Z" fill="#1F1F1F"/>
<path d="M100.907 20.0653V29.2548H98.7018L98.4438 28.2725C98.0861 28.7534 97.6551 29.0759 97.1566 29.2372C96.6552 29.3985 96.1332 29.4777 95.5908 29.4777C94.9369 29.4777 94.3329 29.3516 93.7846 29.0994C93.2333 28.8472 92.7554 28.5012 92.3478 28.0614C91.9402 27.6216 91.6235 27.1114 91.3948 26.522C91.1661 25.9356 91.0518 25.3081 91.0518 24.6425C91.0518 23.9769 91.1661 23.3494 91.3948 22.7629C91.6235 22.1765 91.9402 21.6634 92.3478 21.2235C92.7554 20.7837 93.2333 20.4377 93.7846 20.1855C94.3329 19.9334 94.9369 19.8044 95.5908 19.8044C96.1831 19.8044 96.7285 19.8982 97.2211 20.0829C97.7137 20.2676 98.1242 20.5638 98.4438 20.9714L98.7018 20.0624H100.907V20.0653ZM98.35 24.6777C98.35 24.1968 98.2855 23.7921 98.1565 23.4637C98.0274 23.1353 97.8544 22.8714 97.6375 22.6662C97.4205 22.4639 97.1683 22.3143 96.878 22.2205C96.5877 22.1266 96.2769 22.0827 95.9427 22.0827C95.6084 22.0827 95.2976 22.1501 95.0073 22.285C94.717 22.4199 94.4619 22.6046 94.2391 22.8304C94.0162 23.0591 93.8432 23.3318 93.72 23.6455C93.5969 23.9593 93.5353 24.2906 93.5353 24.6366C93.5353 24.9826 93.5969 25.3286 93.72 25.6365C93.8432 25.9444 94.0162 26.2141 94.2391 26.4428C94.4619 26.6715 94.717 26.8533 95.0073 26.9882C95.2976 27.1231 95.6084 27.1935 95.9427 27.1935C96.6112 27.1935 97.1742 26.9853 97.6375 26.5719C98.1007 26.1584 98.3383 25.5251 98.35 24.6718V24.6777Z" fill="#1F1F1F"/>
<path d="M112.044 20.0654C112.378 20.0654 112.736 20.1211 113.12 20.2325C113.504 20.344 113.859 20.5404 114.184 20.8248C114.513 21.1093 114.78 21.4992 114.991 21.9919C115.202 22.4874 115.304 23.1149 115.304 23.8831V29.2578H112.748V24.3611C112.748 23.9916 112.707 23.6779 112.627 23.4198C112.548 23.1618 112.44 22.9507 112.302 22.7923C112.167 22.6311 112.009 22.5167 111.83 22.4493C111.651 22.3818 111.469 22.3466 111.284 22.3466C111.111 22.3466 110.938 22.3789 110.765 22.4405C110.592 22.5021 110.437 22.6076 110.302 22.7542C110.167 22.9008 110.059 23.1061 109.977 23.3641C109.898 23.6221 109.856 23.9506 109.856 24.3435V29.2578H107.3V24.3611C107.3 23.6104 107.171 23.0856 106.91 22.7894C106.652 22.4933 106.273 22.3466 105.781 22.3466C105.423 22.3466 105.1 22.5138 104.816 22.8451C104.532 23.1765 104.391 23.6955 104.391 24.3962V29.2578H101.834V20.0683H104.021L104.391 20.9275C104.675 20.6548 105.004 20.4407 105.382 20.2912C105.757 20.1416 106.162 20.0654 106.596 20.0654C106.819 20.0654 107.053 20.0889 107.3 20.1299C107.546 20.1739 107.786 20.2501 108.021 20.3645C108.255 20.4759 108.481 20.6225 108.698 20.8043C108.915 20.9861 109.109 21.2119 109.282 21.4875C109.431 21.25 109.61 21.0418 109.818 20.863C110.029 20.6812 110.255 20.5316 110.504 20.4143C110.751 20.297 111.009 20.2091 111.273 20.1534C111.54 20.0977 111.795 20.0683 112.041 20.0683L112.044 20.0654Z" fill="#1F1F1F"/>
<path d="M120.735 19.8043C121.427 19.8043 122.057 19.9421 122.626 20.2207C123.195 20.4992 123.681 20.8628 124.089 21.3144C124.497 21.7659 124.81 22.2849 125.033 22.8714C125.256 23.4578 125.367 24.0618 125.367 24.6776C125.367 25.0471 125.318 25.4429 125.221 25.8622H118.662C118.908 26.2815 119.26 26.6363 119.717 26.9266C120.175 27.2169 120.667 27.3606 121.201 27.3606C121.734 27.3606 122.198 27.3166 122.599 27.2315C123.001 27.1465 123.379 27.0351 123.74 26.8973L124.593 28.4719C124.136 28.7944 123.614 29.0407 123.028 29.2137C122.441 29.3867 121.814 29.4717 121.145 29.4717C120.415 29.4717 119.738 29.3457 119.107 29.0935C118.477 28.8413 117.928 28.4983 117.459 28.0643C116.99 27.6333 116.618 27.1201 116.348 26.5249C116.075 25.9326 115.94 25.3022 115.94 24.6336C115.94 23.9651 116.064 23.3581 116.31 22.7717C116.556 22.1852 116.899 21.6721 117.339 21.2323C117.776 20.7924 118.286 20.4435 118.867 20.1855C119.447 19.9275 120.072 19.7955 120.737 19.7955L120.735 19.8043ZM122.828 23.88C122.679 23.3493 122.415 22.9154 122.031 22.584C121.646 22.2497 121.215 22.0826 120.735 22.0826C120.254 22.0826 119.793 22.2497 119.392 22.584C118.99 22.9183 118.714 23.3493 118.568 23.88H122.828Z" fill="#1F1F1F"/>
</svg>
