<svg width="191" height="88" viewBox="0 0 191 88" fill="none" xmlns="http://www.w3.org/2000/svg">
<g filter="url(#filter0_d_131_32280)">
<mask id="path-1-inside-1_131_32280" fill="white">
<path d="M28 36C28 19.4315 41.4315 6 58 6H155C168.255 6 179 16.7452 179 30C179 43.2548 168.255 54 155 54H36C31.5817 54 28 50.4183 28 46V36Z"/>
</mask>
<path d="M28 36C28 19.4315 41.4315 6 58 6H155C168.255 6 179 16.7452 179 30C179 43.2548 168.255 54 155 54H36C31.5817 54 28 50.4183 28 46V36Z" fill="#1F1F1F"/>
<path d="M28 6H179H28ZM179 30C179 44.0833 167.583 55.5 153.5 55.5H37.5C32.2533 55.5 28 51.2467 28 46C28 49.5899 31.5817 52.5 36 52.5H155C168.255 52.5 179 42.4264 179 30ZM28 54V6V54ZM179 6V54V6Z" fill="white" fill-opacity="0.3" mask="url(#path-1-inside-1_131_32280)"/>
<g clip-path="url(#clip0_131_32280)">
<path d="M58.25 22.5C59.5114 22.8322 60.6621 23.4932 61.5844 24.4156C62.5068 25.3379 63.1678 26.4886 63.5 27.75" stroke="#C58FFD" stroke-width="1.5" stroke-linecap="round" stroke-linejoin="round"/>
<path d="M57.5 25.5C59.0488 25.9144 60.0856 26.9512 60.5 28.5" stroke="#C58FFD" stroke-width="1.5" stroke-linecap="round" stroke-linejoin="round"/>
<path d="M58.6616 32.3756C58.7654 32.3065 58.8849 32.2644 59.0091 32.2531C59.1334 32.2418 59.2585 32.2617 59.3731 32.3109L63.7944 34.2919C63.9434 34.3555 64.0677 34.4658 64.1489 34.606C64.23 34.7463 64.2635 34.9091 64.2444 35.07C64.0987 36.1585 63.5627 37.157 62.736 37.8799C61.9093 38.6028 60.8482 39.0008 59.75 39C56.3685 39 53.1255 37.6567 50.7344 35.2656C48.3433 32.8745 47 29.6315 47 26.25C46.9992 25.1518 47.3972 24.0907 48.1201 23.264C48.843 22.4373 49.8415 21.9013 50.93 21.7556C51.0909 21.7365 51.2537 21.77 51.3939 21.8511C51.5342 21.9322 51.6444 22.0566 51.7081 22.2056L53.6891 26.6306C53.7377 26.7443 53.7576 26.8682 53.7468 26.9913C53.736 27.1145 53.6949 27.2331 53.6272 27.3365L51.6238 29.7187C51.5527 29.826 51.5107 29.9498 51.5018 30.0781C51.4929 30.2065 51.5175 30.3349 51.5731 30.4509C52.3484 32.0381 53.9891 33.659 55.5809 34.4269C55.6975 34.4822 55.8266 34.5063 55.9553 34.4966C56.084 34.4869 56.208 34.4438 56.315 34.3715L58.6616 32.3756Z" stroke="#C58FFD" stroke-width="1.5" stroke-linecap="round" stroke-linejoin="round"/>
</g>
<path d="M80.256 36.24C79.456 36.24 78.7093 36.0907 78.016 35.792C77.3333 35.4827 76.7307 35.056 76.208 34.512C75.696 33.968 75.296 33.3333 75.008 32.608C74.72 31.872 74.576 31.0827 74.576 30.24C74.576 29.3973 74.72 28.6133 75.008 27.888C75.296 27.1627 75.696 26.5333 76.208 26C76.7307 25.456 77.3333 25.0347 78.016 24.736C78.7093 24.4267 79.456 24.272 80.256 24.272C81.216 24.272 82.0907 24.4693 82.88 24.864C83.68 25.2587 84.3413 25.8133 84.864 26.528C85.3973 27.2427 85.7333 28.0747 85.872 29.024H84C83.8933 28.4053 83.664 27.856 83.312 27.376C82.96 26.896 82.5227 26.5227 82 26.256C81.488 25.9893 80.912 25.856 80.272 25.856C79.7067 25.856 79.184 25.9627 78.704 26.176C78.2347 26.3893 77.824 26.6933 77.472 27.088C77.1307 27.4827 76.864 27.9467 76.672 28.48C76.4907 29.0133 76.4 29.6 76.4 30.24C76.4 30.88 76.4907 31.472 76.672 32.016C76.864 32.5493 77.1307 33.0133 77.472 33.408C77.824 33.8027 78.2347 34.112 78.704 34.336C79.184 34.5493 79.7067 34.656 80.272 34.656C80.912 34.656 81.4933 34.5227 82.016 34.256C82.5387 33.9787 82.9707 33.6 83.312 33.12C83.664 32.64 83.8933 32.0907 84 31.472H85.872C85.7333 32.4213 85.3973 33.2533 84.864 33.968C84.3413 34.6827 83.68 35.2427 82.88 35.648C82.0907 36.0427 81.216 36.24 80.256 36.24ZM92.7091 36V34.688C92.4425 35.1573 92.0798 35.52 91.6211 35.776C91.1625 36.032 90.6185 36.16 89.9891 36.16C89.1145 36.16 88.4105 35.9307 87.8771 35.472C87.3438 35.0027 87.0771 34.3787 87.0771 33.6C87.0771 32.768 87.4025 32.1387 88.0531 31.712C88.7145 31.2853 89.6745 31.072 90.9331 31.072C91.1785 31.072 91.4185 31.0773 91.6531 31.088C91.8878 31.0987 92.1758 31.1253 92.5171 31.168V30.544C92.5171 29.9467 92.3625 29.4827 92.0531 29.152C91.7438 28.8107 91.3065 28.64 90.7411 28.64C90.1545 28.64 89.6851 28.8107 89.3331 29.152C88.9918 29.4827 88.8105 29.9413 88.7891 30.528H87.3171C87.3385 29.888 87.4931 29.3333 87.7811 28.864C88.0798 28.384 88.4798 28.016 88.9811 27.76C89.4931 27.4933 90.0798 27.36 90.7411 27.36C91.7865 27.36 92.5971 27.6427 93.1731 28.208C93.7598 28.7627 94.0531 29.5467 94.0531 30.56V36H92.7091ZM88.6131 33.552C88.6131 33.9893 88.7678 34.3413 89.0771 34.608C89.3865 34.8747 89.7971 35.008 90.3091 35.008C90.9918 35.008 91.5305 34.816 91.9251 34.432C92.3198 34.0373 92.5171 33.5147 92.5171 32.864V32.176C92.2078 32.144 91.9358 32.1227 91.7011 32.112C91.4665 32.0907 91.2425 32.08 91.0291 32.08C90.2185 32.08 89.6105 32.2027 89.2051 32.448C88.8105 32.6827 88.6131 33.0507 88.6131 33.552ZM97.8458 36H96.2138V24.512H97.8458V36ZM101.721 36H100.089V24.512H101.721V36ZM106.7 31.76C106.7 30.9067 106.854 30.1493 107.164 29.488C107.473 28.816 107.91 28.2933 108.476 27.92C109.041 27.5467 109.702 27.36 110.46 27.36C111.025 27.36 111.542 27.504 112.012 27.792C112.492 28.0693 112.881 28.464 113.18 28.976V24.512H114.796V36H113.292V34.48C112.993 35.0133 112.593 35.4293 112.092 35.728C111.601 36.016 111.057 36.16 110.46 36.16C109.702 36.16 109.041 35.9733 108.476 35.6C107.91 35.216 107.473 34.6933 107.164 34.032C106.854 33.36 106.7 32.6027 106.7 31.76ZM108.38 31.76C108.38 32.7093 108.604 33.44 109.052 33.952C109.5 34.464 110.076 34.72 110.78 34.72C111.249 34.72 111.66 34.6027 112.012 34.368C112.374 34.1227 112.657 33.776 112.86 33.328C113.073 32.88 113.18 32.3467 113.18 31.728C113.18 31.0987 113.073 30.5653 112.86 30.128C112.646 29.6907 112.358 29.36 111.996 29.136C111.633 28.9013 111.228 28.784 110.78 28.784C110.076 28.784 109.5 29.04 109.052 29.552C108.604 30.064 108.38 30.8 108.38 31.76ZM118.658 36H117.042V27.52H118.658V36ZM119.01 25.552C119.01 25.8507 118.898 26.1067 118.674 26.32C118.461 26.5227 118.183 26.624 117.842 26.624C117.49 26.624 117.202 26.5227 116.978 26.32C116.765 26.1067 116.658 25.8507 116.658 25.552C116.658 25.232 116.765 24.976 116.978 24.784C117.202 24.5813 117.49 24.48 117.842 24.48C118.183 24.48 118.461 24.5813 118.674 24.784C118.898 24.976 119.01 25.232 119.01 25.552ZM122.517 31.664V36H120.901V27.52H122.405V29.312C122.704 28.7253 123.147 28.2613 123.733 27.92C124.331 27.5787 124.976 27.408 125.669 27.408V29.088C125.061 29.056 124.517 29.1253 124.037 29.296C123.568 29.4667 123.195 29.7493 122.917 30.144C122.651 30.528 122.517 31.0347 122.517 31.664ZM130.405 36.16C129.584 36.16 128.864 35.9787 128.245 35.616C127.637 35.2427 127.162 34.72 126.821 34.048C126.48 33.376 126.309 32.5973 126.309 31.712C126.309 30.8693 126.485 30.1227 126.837 29.472C127.189 28.8213 127.669 28.3093 128.277 27.936C128.885 27.552 129.578 27.36 130.357 27.36C130.997 27.36 131.568 27.4827 132.069 27.728C132.581 27.9627 133.013 28.2987 133.365 28.736C133.728 29.1627 133.989 29.6693 134.149 30.256C134.309 30.832 134.352 31.4667 134.277 32.16H127.253V31.088H132.565C132.533 30.2987 132.314 29.6853 131.909 29.248C131.514 28.8 130.986 28.576 130.325 28.576C129.845 28.576 129.424 28.704 129.061 28.96C128.709 29.2053 128.432 29.5627 128.229 30.032C128.037 30.4907 127.941 31.0507 127.941 31.712C127.941 32.3733 128.037 32.944 128.229 33.424C128.421 33.8933 128.698 34.256 129.061 34.512C129.424 34.768 129.861 34.896 130.373 34.896C130.981 34.896 131.482 34.7413 131.877 34.432C132.282 34.1227 132.549 33.6907 132.677 33.136H134.277C134.074 34.0747 133.626 34.816 132.933 35.36C132.25 35.8933 131.408 36.16 130.405 36.16ZM139.183 36.176C138.404 36.176 137.716 35.9893 137.119 35.616C136.532 35.2427 136.068 34.7253 135.727 34.064C135.396 33.392 135.231 32.624 135.231 31.76C135.231 30.9067 135.401 30.1493 135.743 29.488C136.084 28.8267 136.553 28.3093 137.151 27.936C137.748 27.552 138.425 27.36 139.183 27.36C139.887 27.36 140.511 27.5093 141.055 27.808C141.609 28.096 142.063 28.512 142.415 29.056C142.777 29.5893 143.007 30.224 143.103 30.96H141.407C141.321 30.2773 141.081 29.744 140.687 29.36C140.292 28.976 139.796 28.784 139.199 28.784C138.729 28.784 138.324 28.912 137.983 29.168C137.641 29.4133 137.375 29.7547 137.183 30.192C136.991 30.6293 136.895 31.152 136.895 31.76C136.895 32.3573 136.991 32.88 137.183 33.328C137.375 33.776 137.641 34.1227 137.983 34.368C138.324 34.6133 138.729 34.736 139.199 34.736C139.807 34.736 140.303 34.544 140.687 34.16C141.081 33.776 141.327 33.2427 141.423 32.56H143.103C143.017 33.3067 142.799 33.952 142.447 34.496C142.095 35.0293 141.641 35.4453 141.087 35.744C140.532 36.032 139.897 36.176 139.183 36.176ZM149.513 34.432V35.856C149.268 35.9733 149.028 36.0533 148.793 36.096C148.569 36.1387 148.329 36.16 148.073 36.16C147.551 36.16 147.087 36.064 146.681 35.872C146.287 35.68 145.977 35.3813 145.753 34.976C145.529 34.5707 145.417 34.0587 145.417 33.44V28.896H143.545V27.52H145.417V25.008H147.033V27.52H149.593V28.896H147.033V33.072C147.033 33.6587 147.161 34.0693 147.417 34.304C147.684 34.5387 148.031 34.656 148.457 34.656C148.649 34.656 148.831 34.64 149.001 34.608C149.183 34.5653 149.353 34.5067 149.513 34.432ZM152.768 36H151.136V24.512H152.768V36ZM162.051 27.52L157.811 39.088H156.051L157.267 35.888L153.923 27.52H155.667L158.131 33.984L160.419 27.52H162.051Z" fill="white"/>
</g>
<defs>
<filter id="filter0_d_131_32280" x="0" y="0" width="191" height="88" filterUnits="userSpaceOnUse" color-interpolation-filters="sRGB">
<feFlood flood-opacity="0" result="BackgroundImageFix"/>
<feColorMatrix in="SourceAlpha" type="matrix" values="0 0 0 0 0 0 0 0 0 0 0 0 0 0 0 0 0 0 127 0" result="hardAlpha"/>
<feOffset dx="-8" dy="14"/>
<feGaussianBlur stdDeviation="10"/>
<feComposite in2="hardAlpha" operator="out"/>
<feColorMatrix type="matrix" values="0 0 0 0 0.176471 0 0 0 0 0.00392157 0 0 0 0 0.356863 0 0 0 0.16 0"/>
<feBlend mode="normal" in2="BackgroundImageFix" result="effect1_dropShadow_131_32280"/>
<feBlend mode="normal" in="SourceGraphic" in2="effect1_dropShadow_131_32280" result="shape"/>
</filter>
<clipPath id="clip0_131_32280">
<rect width="24" height="24" fill="white" transform="translate(44 18)"/>
</clipPath>
</defs>
</svg>
