<svg width="30" height="24" viewBox="0 0 30 24" fill="none" xmlns="http://www.w3.org/2000/svg">
<path d="M17.8187 10.0464V12.8261L12.2397 13.9521V11.1723L17.8187 10.0464Z" fill="#FDFAFF"/>
<path d="M12.2401 13.9521V21.7831C12.2401 22.3109 11.9313 22.7956 11.4543 23.0185C11.2705 23.1045 11.0712 23.1475 10.8796 23.1475C10.5629 23.1475 10.2501 23.038 9.99993 22.8269L9.51123 22.4164V14.5034L12.2401 13.9521Z" fill="#FDFAFF"/>
<path d="M12.2403 11.1724V13.9561L9.51139 14.5073L5.33204 15.3518L7.5566 17.2245L9.50748 18.8626V22.4242L4.13961 17.9165L1.43027 15.6411C1.43027 15.6411 1.41854 15.6294 1.41072 15.6254C1.39508 15.6098 1.37162 15.5942 1.35598 15.5746C1.33644 15.559 1.3208 15.5394 1.30125 15.5238C1.28561 15.5082 1.26997 15.4886 1.25433 15.4691C1.25433 15.4691 1.25043 15.4691 1.24652 15.4612C1.23088 15.4456 1.21524 15.4261 1.20351 15.4104C1.18787 15.3909 1.17223 15.3713 1.1605 15.3518C1.14487 15.3283 1.13314 15.3088 1.12141 15.2853C1.10968 15.2658 1.09795 15.2462 1.08622 15.2228C1.07058 15.1993 1.06276 15.1798 1.05495 15.1563C1.05495 15.1563 1.05495 15.1563 1.05104 15.1485C1.0354 15.1094 1.01585 15.0664 1.00412 15.0273C1.00021 15.0116 0.992392 14.9999 0.988482 14.9882C0.988482 14.9804 0.980664 14.9725 0.980664 14.9608C0.976754 14.9452 0.972844 14.9295 0.968935 14.9178C0.968935 14.9139 0.968935 14.91 0.968935 14.9022C0.968935 14.8865 0.961115 14.867 0.957206 14.8513C0.953296 14.824 0.949387 14.8044 0.945477 14.781C0.945477 14.7614 0.941568 14.7341 0.937658 14.7145C0.933748 14.6559 0.929839 14.5933 0.933748 14.5347C0.933748 14.5229 0.933748 14.5112 0.933748 14.4995C0.933748 14.4565 0.941568 14.4135 0.945477 14.3705C0.945477 14.3548 0.953297 14.3431 0.953297 14.3275C0.957206 14.3001 0.965025 14.2727 0.972844 14.2454C0.980664 14.2141 0.988483 14.1828 1.00021 14.1515C1.00021 14.1437 1.00803 14.132 1.01194 14.1203C1.01976 14.1046 1.02758 14.0851 1.03149 14.0694C1.03931 14.046 1.05104 14.0225 1.06276 14.003C1.06667 13.9912 1.07449 13.9795 1.0784 13.9639C1.08622 13.9482 1.09404 13.9326 1.10577 13.913C1.11359 13.8974 1.12532 13.8818 1.13705 13.8661C1.13705 13.8661 1.13705 13.8661 1.13705 13.8622C1.14487 13.8466 1.1566 13.8309 1.16832 13.8153C1.19569 13.7723 1.22697 13.7332 1.26215 13.6941C1.26997 13.6863 1.27779 13.6785 1.28561 13.6667C1.3208 13.6276 1.35989 13.5925 1.39899 13.5534C1.41463 13.5416 1.42636 13.5338 1.43809 13.5221C1.44591 13.5143 1.45763 13.5065 1.46936 13.4986C1.48109 13.4947 1.48891 13.483 1.50064 13.4752C1.51237 13.4634 1.52801 13.4556 1.53974 13.4478C1.57101 13.4243 1.61011 13.4048 1.64529 13.3853C1.65311 13.3774 1.66093 13.3735 1.67266 13.3696C1.68439 13.3657 1.69221 13.3618 1.70394 13.354C1.75476 13.3305 1.80559 13.3071 1.86423 13.2914C1.87596 13.2875 1.8916 13.2836 1.90333 13.2758C1.94242 13.2601 1.98543 13.2523 2.02843 13.2445L9.51921 11.7315L12.2481 11.1802L12.2403 11.1724Z" fill="#FDFAFF"/>
<path d="M17.8189 17.0171L20.5438 16.4659V21.5757C20.5438 22.3264 19.9339 22.9402 19.1794 22.9402C18.4248 22.9402 17.8149 22.3303 17.8149 21.5757" fill="#FDFAFF"/>
<path d="M12.2401 2.42267V11.1723L9.51123 11.7236V2.42267C9.51123 1.67203 10.1211 1.05823 10.8757 1.05823C11.6302 1.05823 12.2401 1.66812 12.2401 2.42267Z" fill="#FDFAFF"/>
<path d="M20.5487 5.18689V12.275V16.4661L17.8198 17.0173V5.73814L20.5487 5.18689Z" fill="#FDFAFF"/>
<path d="M29.1338 9.4169V9.47164C29.1338 9.47164 29.1338 9.49509 29.1338 9.50682C29.1338 9.55765 29.126 9.60847 29.1142 9.6593C29.1142 9.67885 29.1064 9.69839 29.1025 9.71403C29.0947 9.75704 29.083 9.79613 29.0712 9.83523C29.0673 9.85087 29.0634 9.86651 29.0556 9.88214C29.0478 9.90169 29.0439 9.91733 29.0361 9.93688C29.0282 9.96034 29.0165 9.98379 29.0048 10.0033C29.0009 10.0151 28.993 10.0268 28.9852 10.0424C28.9774 10.0581 28.9657 10.0737 28.9579 10.0933C28.95 10.1089 28.9383 10.1245 28.9305 10.1402C28.9305 10.1402 28.9305 10.1415 28.9305 10.1441C28.9305 10.1441 28.9109 10.1754 28.8992 10.191C28.8797 10.2184 28.8601 10.2457 28.8406 10.2731C28.8328 10.2809 28.821 10.2927 28.8132 10.3005C28.7389 10.3904 28.6529 10.4686 28.5591 10.535C28.5356 10.5507 28.5122 10.5663 28.4887 10.582C28.4613 10.6015 28.4301 10.6132 28.3988 10.6289C28.3871 10.6367 28.3753 10.6406 28.3636 10.6484C28.2659 10.6953 28.1564 10.7305 28.043 10.754L20.5562 12.2709V9.49119L23.9419 8.80701H23.9458L24.7316 8.64671H24.7277L28.1447 7.95081L28.6334 8.36522C28.6334 8.36522 28.6529 8.37695 28.6568 8.38477C28.6764 8.40041 28.692 8.41605 28.7076 8.43169C28.7272 8.45123 28.7467 8.46687 28.7624 8.48642C28.778 8.50597 28.7937 8.5177 28.8093 8.53724C28.8093 8.54115 28.8171 8.54506 28.8171 8.54897C28.8288 8.56852 28.8445 8.58416 28.8601 8.60371C28.8875 8.6428 28.9188 8.6819 28.9422 8.72881C28.954 8.74836 28.9657 8.77182 28.9774 8.79137C28.9891 8.81483 29.0009 8.83437 29.0087 8.85783C29.0165 8.86956 29.0204 8.8852 29.0282 8.89693C29.0361 8.91257 29.04 8.9282 29.0478 8.94384C29.0556 8.95948 29.0595 8.97512 29.0673 8.99467C29.0751 9.01812 29.0791 9.03767 29.0869 9.06113C29.0869 9.06504 29.0869 9.07286 29.0908 9.07677C29.0908 9.0885 29.0986 9.10023 29.0986 9.11195C29.1025 9.12759 29.1064 9.13932 29.1064 9.15496C29.1064 9.15496 29.1064 9.15626 29.1064 9.15887C29.1064 9.15887 29.1064 9.16669 29.1064 9.1706C29.1103 9.18624 29.1142 9.20187 29.1142 9.22142C29.1142 9.22533 29.1142 9.22924 29.1142 9.23706C29.1142 9.25661 29.1182 9.27616 29.1221 9.2918C29.1221 9.31525 29.126 9.3348 29.126 9.35435C29.126 9.37781 29.126 9.40126 29.126 9.42081L29.1338 9.4169Z" fill="#FDFAFF"/>
<path d="M28.1363 7.95082L24.7193 8.64673L24.3752 8.35742L22.4986 6.78185L20.5477 5.14373V5.19065L17.8228 5.7419V7.72797V2.21545C17.8228 1.68766 18.1316 1.20287 18.6125 0.98002C19.0895 0.753263 19.6564 0.831455 20.0629 1.17159L25.9195 6.08985L26.2909 6.40262L28.1402 7.95473L28.1363 7.95082Z" fill="#FDFAFF"/>
</svg>
