<svg width="45" height="45" viewBox="0 0 45 45" fill="none" xmlns="http://www.w3.org/2000/svg">
<path d="M25.1874 20.4468V23.2265L19.6084 24.3525V21.5727L25.1874 20.4468Z" fill="#FDFAFF"/>
<path d="M19.6088 24.3525V32.1834C19.6088 32.7112 19.2999 33.196 18.8229 33.4189C18.6392 33.5049 18.4398 33.5479 18.2482 33.5479C17.9316 33.5479 17.6188 33.4384 17.3686 33.2273L16.8799 32.8168V24.9038L19.6088 24.3525Z" fill="#FDFAFF"/>
<path d="M19.6089 21.5728V24.3564L16.88 24.9077L12.7007 25.7522L14.9252 27.6249L16.8761 29.263V32.8246L11.5083 28.3169L8.79892 26.0415C8.79892 26.0415 8.78719 26.0297 8.77937 26.0258C8.76373 26.0102 8.74027 25.9946 8.72464 25.975C8.70509 25.9594 8.68945 25.9398 8.6699 25.9242C8.65426 25.9086 8.63863 25.889 8.62299 25.8695C8.62299 25.8695 8.61908 25.8695 8.61517 25.8616C8.59953 25.846 8.58389 25.8264 8.57216 25.8108C8.55652 25.7913 8.54089 25.7717 8.52916 25.7522C8.51352 25.7287 8.50179 25.7092 8.49006 25.6857C8.47833 25.6662 8.4666 25.6466 8.45487 25.6232C8.43924 25.5997 8.43142 25.5801 8.4236 25.5567C8.4236 25.5567 8.4236 25.5567 8.41969 25.5489C8.40405 25.5098 8.3845 25.4668 8.37277 25.4277C8.36886 25.412 8.36104 25.4003 8.35713 25.3886C8.35713 25.3808 8.34932 25.3729 8.34932 25.3612C8.34541 25.3456 8.3415 25.3299 8.33759 25.3182C8.33759 25.3143 8.33759 25.3104 8.33759 25.3026C8.33759 25.2869 8.32977 25.2674 8.32586 25.2517C8.32195 25.2244 8.31804 25.2048 8.31413 25.1814C8.31413 25.1618 8.31022 25.1345 8.30631 25.1149C8.3024 25.0563 8.29849 24.9937 8.3024 24.9351C8.3024 24.9233 8.3024 24.9116 8.3024 24.8999C8.3024 24.8569 8.31022 24.8139 8.31413 24.7709C8.31413 24.7552 8.32195 24.7435 8.32195 24.7279C8.32586 24.7005 8.33368 24.6731 8.3415 24.6458C8.34932 24.6145 8.35713 24.5832 8.36886 24.5519C8.36886 24.5441 8.37668 24.5324 8.38059 24.5206C8.38841 24.505 8.39623 24.4855 8.40014 24.4698C8.40796 24.4464 8.41969 24.4229 8.43142 24.4034C8.43533 24.3916 8.44315 24.3799 8.44706 24.3643C8.45488 24.3486 8.46269 24.333 8.47442 24.3134C8.48224 24.2978 8.49397 24.2822 8.5057 24.2665C8.5057 24.2665 8.5057 24.2665 8.5057 24.2626C8.51352 24.247 8.52525 24.2313 8.53698 24.2157C8.56434 24.1727 8.59562 24.1336 8.63081 24.0945C8.63863 24.0867 8.64644 24.0789 8.65426 24.0671C8.68945 24.028 8.72855 23.9929 8.76764 23.9538C8.78328 23.942 8.79501 23.9342 8.80674 23.9225C8.81456 23.9147 8.82629 23.9068 8.83801 23.899C8.84974 23.8951 8.85756 23.8834 8.86929 23.8756C8.88102 23.8638 8.89666 23.856 8.90839 23.8482C8.93966 23.8247 8.97876 23.8052 9.01395 23.7856C9.02177 23.7778 9.02958 23.7739 9.04131 23.77C9.05304 23.7661 9.06086 23.7622 9.07259 23.7544C9.12341 23.7309 9.17424 23.7075 9.23288 23.6918C9.24461 23.6879 9.26025 23.684 9.27198 23.6762C9.31107 23.6605 9.35408 23.6527 9.39709 23.6449L16.8879 22.1319L19.6168 21.5806L19.6089 21.5728Z" fill="#FDFAFF"/>
<path d="M25.1875 27.4175L27.9125 26.8663V31.9761C27.9125 32.7267 27.3026 33.3406 26.548 33.3406C25.7935 33.3406 25.1836 32.7307 25.1836 31.9761" fill="#FDFAFF"/>
<path d="M19.6088 12.8231V21.5727L16.8799 22.124V12.8231C16.8799 12.0724 17.4898 11.4586 18.2443 11.4586C18.9989 11.4586 19.6088 12.0685 19.6088 12.8231Z" fill="#FDFAFF"/>
<path d="M27.9174 15.5873V22.6754V26.8665L25.1885 27.4177V16.1385L27.9174 15.5873Z" fill="#FDFAFF"/>
<path d="M36.5024 19.8173V19.872C36.5024 19.872 36.5024 19.8955 36.5024 19.9072C36.5024 19.958 36.4946 20.0089 36.4829 20.0597C36.4829 20.0792 36.4751 20.0988 36.4712 20.1144C36.4634 20.1574 36.4516 20.1965 36.4399 20.2356C36.436 20.2513 36.4321 20.2669 36.4243 20.2825C36.4164 20.3021 36.4125 20.3177 36.4047 20.3373C36.3969 20.3607 36.3852 20.3842 36.3734 20.4037C36.3695 20.4155 36.3617 20.4272 36.3539 20.4428C36.3461 20.4585 36.3343 20.4741 36.3265 20.4937C36.3187 20.5093 36.307 20.5249 36.2991 20.5406C36.2991 20.5406 36.2991 20.5419 36.2991 20.5445C36.2991 20.5445 36.2796 20.5758 36.2679 20.5914C36.2483 20.6188 36.2288 20.6461 36.2092 20.6735C36.2014 20.6813 36.1897 20.693 36.1819 20.7009C36.1076 20.7908 36.0216 20.869 35.9277 20.9354C35.9043 20.9511 35.8808 20.9667 35.8574 20.9824C35.83 21.0019 35.7987 21.0136 35.7674 21.0293C35.7557 21.0371 35.744 21.041 35.7323 21.0488C35.6345 21.0957 35.525 21.1309 35.4117 21.1544L27.9248 22.6713V19.8916L31.3105 19.2074H31.3144L32.1002 19.0471H32.0963L35.5133 18.3512L36.002 18.7656C36.002 18.7656 36.0216 18.7773 36.0255 18.7852C36.045 18.8008 36.0607 18.8164 36.0763 18.8321C36.0958 18.8516 36.1154 18.8673 36.131 18.8868C36.1467 18.9064 36.1623 18.9181 36.178 18.9376C36.178 18.9415 36.1858 18.9455 36.1858 18.9494C36.1975 18.9689 36.2131 18.9846 36.2288 19.0041C36.2561 19.0432 36.2874 19.0823 36.3109 19.1292C36.3226 19.1488 36.3343 19.1722 36.3461 19.1918C36.3578 19.2152 36.3695 19.2348 36.3773 19.2582C36.3852 19.27 36.3891 19.2856 36.3969 19.2973C36.4047 19.313 36.4086 19.3286 36.4164 19.3442C36.4243 19.3599 36.4282 19.3755 36.436 19.3951C36.4438 19.4185 36.4477 19.4381 36.4555 19.4615C36.4555 19.4654 36.4555 19.4732 36.4594 19.4772C36.4594 19.4889 36.4673 19.5006 36.4673 19.5123C36.4712 19.528 36.4751 19.5397 36.4751 19.5554C36.4751 19.5554 36.4751 19.5567 36.4751 19.5593C36.4751 19.5593 36.4751 19.5671 36.4751 19.571C36.479 19.5866 36.4829 19.6023 36.4829 19.6218C36.4829 19.6257 36.4829 19.6296 36.4829 19.6375C36.4829 19.657 36.4868 19.6765 36.4907 19.6922C36.4907 19.7156 36.4946 19.7352 36.4946 19.7547C36.4946 19.7782 36.4946 19.8017 36.4946 19.8212L36.5024 19.8173Z" fill="#FDFAFF"/>
<path d="M35.5049 18.3512L32.0879 19.0471L31.7439 18.7578L29.8673 17.1822L27.9164 15.5441V15.591L25.1914 16.1423V18.1284V12.6158C25.1914 12.088 25.5003 11.6033 25.9811 11.3804C26.4581 11.1537 27.025 11.2318 27.4316 11.572L33.2882 16.4902L33.6596 16.803L35.5088 18.3551L35.5049 18.3512Z" fill="#FDFAFF"/>
</svg>
