<svg width="191" height="92" viewBox="0 0 191 92" fill="none" xmlns="http://www.w3.org/2000/svg">
<g filter="url(#filter0_d_131_32287)">
<mask id="path-1-inside-1_131_32287" fill="white">
<path d="M12 32C12 17.6406 23.6406 6 38 6H121.947C132.23 6 137.371 6 141.56 7.24718C151.268 10.1375 158.863 17.7316 161.753 27.4399C163 31.6291 163 36.7703 163 47.0526C163 49.7946 163 51.1656 162.667 52.2827C161.897 54.8716 159.872 56.8967 157.283 57.6674C156.166 58 154.795 58 152.053 58H38C23.6406 58 12 46.3594 12 32Z"/>
</mask>
<path d="M12 32C12 17.6406 23.6406 6 38 6H121.947C132.23 6 137.371 6 141.56 7.24718C151.268 10.1375 158.863 17.7316 161.753 27.4399C163 31.6291 163 36.7703 163 47.0526C163 49.7946 163 51.1656 162.667 52.2827C161.897 54.8716 159.872 56.8967 157.283 57.6674C156.166 58 154.795 58 152.053 58H38C23.6406 58 12 46.3594 12 32Z" fill="#1F1F1F"/>
<path d="M12 6H163H12ZM163 50C163 55.2467 158.747 59.5 153.5 59.5H39.5C24.3122 59.5 12 47.1878 12 32C12 45.531 23.6406 56.5 38 56.5H155C159.418 56.5 163 53.5899 163 50ZM12 58V6V58ZM163 6V58V6Z" fill="white" fill-opacity="0.3" mask="url(#path-1-inside-1_131_32287)"/>
<g clip-path="url(#clip0_131_32287)">
<path d="M30.9846 37.189C31.0043 37.2232 31.0242 37.2572 31.0443 37.2911C31.1981 37.551 31.2495 37.8611 31.1691 38.1521L30.1517 41.8356C30.1496 41.8433 30.1564 41.8504 30.1641 41.8487L34.1045 40.9417C34.3745 40.8795 34.6568 40.9288 34.8981 41.0649C34.9561 41.0976 35.0145 41.1298 35.0733 41.1615M30.9846 37.189C30.7906 36.8527 30.6149 36.5046 30.4589 36.146M30.9846 37.189L30.4589 36.146M30.4589 36.146C29.9061 34.8758 29.5996 33.4737 29.5996 32C29.5996 26.2562 34.2558 21.6 39.9996 21.6C45.7434 21.6 50.3996 26.2562 50.3996 32C50.3996 37.7437 45.7434 42.4 39.9996 42.4C38.6465 42.4 37.3538 42.1416 36.168 41.6714M35.0733 41.1615C35.4264 41.3518 35.7919 41.5223 36.168 41.6714M35.0733 41.1615L36.168 41.6714" stroke="#25D366" stroke-width="1.6"/>
<path d="M43.9998 34.4869V35.9923C44.0002 36.1321 43.9773 36.2704 43.9324 36.3985C43.8875 36.5265 43.8217 36.6414 43.7391 36.7359C43.6566 36.8304 43.5591 36.9023 43.453 36.9471C43.3469 36.9919 43.2344 37.0085 43.1229 36.9959C41.8851 36.8281 40.6962 36.3005 39.6516 35.4554C38.6797 34.685 37.8557 33.657 37.2381 32.4446C36.5583 31.1355 36.1353 29.645 36.0033 28.094C35.9932 27.9552 36.0064 27.8154 36.0421 27.6833C36.0777 27.5513 36.135 27.4299 36.2103 27.327C36.2856 27.2241 36.3773 27.1419 36.4794 27.0856C36.5816 27.0293 36.692 27.0002 36.8037 27H38.0104C38.2056 26.9977 38.3949 27.0839 38.5429 27.2427C38.6909 27.4015 38.7876 27.622 38.8149 27.8631C38.8658 28.3449 38.9603 28.8179 39.0965 29.2732C39.1506 29.4528 39.1623 29.648 39.1302 29.8357C39.0981 30.0233 39.0236 30.1956 38.9155 30.332L38.4046 30.9693C38.9772 32.2256 39.811 33.2658 40.8181 33.9801L41.3289 33.3428C41.4383 33.2079 41.5763 33.1149 41.7268 33.0749C41.8772 33.0349 42.0336 33.0495 42.1776 33.117C42.5426 33.2869 42.9217 33.4047 43.3079 33.4683C43.5033 33.5027 43.6817 33.6254 43.8093 33.8133C43.9369 34.0011 44.0046 34.2408 43.9998 34.4869Z" fill="#25D366"/>
</g>
<path d="M68 38L65.568 28.992L63.12 38H61.312L58.32 26.512H60.048L62.256 35.36L64.672 26.512H66.496L68.88 35.376L71.088 26.512H72.816L69.824 38H68ZM75.8766 33.216V38H74.2606V26.512H75.8766V30.88C76.154 30.4213 76.506 30.0533 76.9326 29.776C77.37 29.4987 77.882 29.36 78.4686 29.36C79.3433 29.36 80.042 29.632 80.5646 30.176C81.098 30.72 81.3646 31.4987 81.3646 32.512V38H79.7486V33.056C79.7486 32.3307 79.594 31.7707 79.2846 31.376C78.9753 30.9813 78.5166 30.784 77.9086 30.784C77.5353 30.784 77.194 30.8853 76.8846 31.088C76.5753 31.28 76.33 31.5573 76.1486 31.92C75.9673 32.2827 75.8766 32.7147 75.8766 33.216ZM88.6466 38V36.688C88.38 37.1573 88.0173 37.52 87.5586 37.776C87.1 38.032 86.556 38.16 85.9266 38.16C85.052 38.16 84.348 37.9307 83.8146 37.472C83.2813 37.0027 83.0146 36.3787 83.0146 35.6C83.0146 34.768 83.34 34.1387 83.9906 33.712C84.652 33.2853 85.612 33.072 86.8706 33.072C87.116 33.072 87.356 33.0773 87.5906 33.088C87.8253 33.0987 88.1133 33.1253 88.4546 33.168V32.544C88.4546 31.9467 88.3 31.4827 87.9906 31.152C87.6813 30.8107 87.244 30.64 86.6786 30.64C86.092 30.64 85.6226 30.8107 85.2706 31.152C84.9293 31.4827 84.748 31.9413 84.7266 32.528H83.2546C83.276 31.888 83.4306 31.3333 83.7186 30.864C84.0173 30.384 84.4173 30.016 84.9186 29.76C85.4306 29.4933 86.0173 29.36 86.6786 29.36C87.724 29.36 88.5346 29.6427 89.1106 30.208C89.6973 30.7627 89.9906 31.5467 89.9906 32.56V38H88.6466ZM84.5506 35.552C84.5506 35.9893 84.7053 36.3413 85.0146 36.608C85.324 36.8747 85.7346 37.008 86.2466 37.008C86.9293 37.008 87.468 36.816 87.8626 36.432C88.2573 36.0373 88.4546 35.5147 88.4546 34.864V34.176C88.1453 34.144 87.8733 34.1227 87.6386 34.112C87.404 34.0907 87.18 34.08 86.9666 34.08C86.156 34.08 85.548 34.2027 85.1426 34.448C84.748 34.6827 84.5506 35.0507 84.5506 35.552ZM96.8571 36.432V37.856C96.6118 37.9733 96.3718 38.0533 96.1371 38.096C95.9131 38.1387 95.6731 38.16 95.4171 38.16C94.8945 38.16 94.4305 38.064 94.0251 37.872C93.6305 37.68 93.3211 37.3813 93.0971 36.976C92.8731 36.5707 92.7611 36.0587 92.7611 35.44V30.896H90.8891V29.52H92.7611V27.008H94.3771V29.52H96.9371V30.896H94.3771V35.072C94.3771 35.6587 94.5051 36.0693 94.7611 36.304C95.0278 36.5387 95.3745 36.656 95.8011 36.656C95.9931 36.656 96.1745 36.64 96.3451 36.608C96.5265 36.5653 96.6971 36.5067 96.8571 36.432ZM105.168 35.472C105.168 36.304 104.859 36.96 104.24 37.44C103.621 37.92 102.747 38.16 101.616 38.16C100.507 38.16 99.6268 37.8987 98.9761 37.376C98.3361 36.8533 97.9735 36.1387 97.8881 35.232H99.4401C99.4615 35.7653 99.6695 36.1867 100.064 36.496C100.469 36.7947 100.997 36.944 101.648 36.944C102.213 36.944 102.667 36.8427 103.008 36.64C103.36 36.4373 103.536 36.1387 103.536 35.744C103.536 35.392 103.419 35.1253 103.184 34.944C102.96 34.7627 102.581 34.624 102.048 34.528L100.672 34.272C99.8935 34.1227 99.2908 33.8507 98.8641 33.456C98.4375 33.0507 98.2241 32.528 98.2241 31.888C98.2241 31.3867 98.3575 30.9493 98.6241 30.576C98.9015 30.192 99.2855 29.8933 99.7761 29.68C100.267 29.4667 100.837 29.36 101.488 29.36C102.171 29.36 102.768 29.4773 103.28 29.712C103.792 29.936 104.203 30.2613 104.512 30.688C104.821 31.104 104.997 31.6053 105.04 32.192H103.488C103.435 31.6907 103.232 31.296 102.88 31.008C102.528 30.72 102.069 30.576 101.504 30.576C100.992 30.576 100.576 30.6827 100.256 30.896C99.9468 31.0987 99.7921 31.3813 99.7921 31.744C99.7921 32.0853 99.9041 32.3467 100.128 32.528C100.363 32.6987 100.736 32.8373 101.248 32.944L102.688 33.216C103.531 33.3653 104.155 33.6267 104.56 34C104.965 34.3733 105.168 34.864 105.168 35.472ZM108.821 33.728H114.165L114.645 35.152H108.229L108.821 33.728ZM114.965 38L111.461 28.432L107.909 38H106.133L110.533 26.512H112.469L116.837 38H114.965ZM126.388 33.76C126.388 34.6133 126.233 35.3707 125.924 36.032C125.615 36.6933 125.177 37.216 124.612 37.6C124.057 37.9733 123.401 38.16 122.644 38.16C122.068 38.16 121.545 38.0213 121.076 37.744C120.607 37.4667 120.217 37.072 119.908 36.56V41.088H118.292V29.52H119.796V31.072C120.095 30.528 120.495 30.1067 120.996 29.808C121.497 29.5093 122.047 29.36 122.644 29.36C123.401 29.36 124.057 29.552 124.612 29.936C125.177 30.3093 125.615 30.8267 125.924 31.488C126.233 32.1493 126.388 32.9067 126.388 33.76ZM124.708 33.76C124.708 32.8107 124.479 32.08 124.02 31.568C123.572 31.0453 123.001 30.784 122.308 30.784C121.86 30.784 121.455 30.9013 121.092 31.136C120.729 31.3707 120.441 31.7067 120.228 32.144C120.015 32.5813 119.908 33.12 119.908 33.76C119.908 34.3787 120.015 34.912 120.228 35.36C120.441 35.7973 120.729 36.1333 121.092 36.368C121.455 36.6027 121.86 36.72 122.308 36.72C123.001 36.72 123.572 36.464 124.02 35.952C124.479 35.44 124.708 34.7093 124.708 33.76ZM136.122 33.76C136.122 34.6133 135.968 35.3707 135.658 36.032C135.349 36.6933 134.912 37.216 134.346 37.6C133.792 37.9733 133.136 38.16 132.378 38.16C131.802 38.16 131.28 38.0213 130.81 37.744C130.341 37.4667 129.952 37.072 129.642 36.56V41.088H128.026V29.52H129.53V31.072C129.829 30.528 130.229 30.1067 130.73 29.808C131.232 29.5093 131.781 29.36 132.378 29.36C133.136 29.36 133.792 29.552 134.346 29.936C134.912 30.3093 135.349 30.8267 135.658 31.488C135.968 32.1493 136.122 32.9067 136.122 33.76ZM134.442 33.76C134.442 32.8107 134.213 32.08 133.754 31.568C133.306 31.0453 132.736 30.784 132.042 30.784C131.594 30.784 131.189 30.9013 130.826 31.136C130.464 31.3707 130.176 31.7067 129.962 32.144C129.749 32.5813 129.642 33.12 129.642 33.76C129.642 34.3787 129.749 34.912 129.962 35.36C130.176 35.7973 130.464 36.1333 130.826 36.368C131.189 36.6027 131.594 36.72 132.042 36.72C132.736 36.72 133.306 36.464 133.754 35.952C134.213 35.44 134.442 34.7093 134.442 33.76Z" fill="white"/>
</g>
<defs>
<filter id="filter0_d_131_32287" x="0" y="0" width="191" height="92" filterUnits="userSpaceOnUse" color-interpolation-filters="sRGB">
<feFlood flood-opacity="0" result="BackgroundImageFix"/>
<feColorMatrix in="SourceAlpha" type="matrix" values="0 0 0 0 0 0 0 0 0 0 0 0 0 0 0 0 0 0 127 0" result="hardAlpha"/>
<feOffset dx="8" dy="14"/>
<feGaussianBlur stdDeviation="10"/>
<feComposite in2="hardAlpha" operator="out"/>
<feColorMatrix type="matrix" values="0 0 0 0 0.176471 0 0 0 0 0.00392157 0 0 0 0 0.356863 0 0 0 0.16 0"/>
<feBlend mode="normal" in2="BackgroundImageFix" result="effect1_dropShadow_131_32287"/>
<feBlend mode="normal" in="SourceGraphic" in2="effect1_dropShadow_131_32287" result="shape"/>
</filter>
<clipPath id="clip0_131_32287">
<rect width="24" height="24" fill="white" transform="translate(28 20)"/>
</clipPath>
</defs>
</svg>
