<svg width="164" height="165" viewBox="0 0 164 165" fill="none" xmlns="http://www.w3.org/2000/svg">
<mask id="mask0_151_52316" style="mask-type:luminance" maskUnits="userSpaceOnUse" x="6" y="6" width="152" height="153">
<path d="M8.68394 58.9118C10.1252 58.9118 11.2937 57.7434 11.2937 56.3021C11.2937 54.8608 10.1252 53.6924 8.68394 53.6924C7.24263 53.6924 6.07422 54.8608 6.07422 56.3021C6.07422 57.7434 7.24263 58.9118 8.68394 58.9118Z" fill="white"/>
<path d="M11.293 69.3518V64.1324H8.68325C7.99111 64.1324 7.32732 64.4073 6.8379 64.8967C6.34848 65.3862 6.07353 66.0499 6.07353 66.7421C6.07353 67.4342 6.34848 68.098 6.8379 68.5874C7.32732 69.0769 7.99111 69.3518 8.68325 69.3518" fill="white"/>
<path d="M6.07422 79.7898H11.2937V77.1801C11.2937 76.4879 11.0187 75.8241 10.5293 75.3347C10.0399 74.8453 9.37608 74.5704 8.68394 74.5704C7.9918 74.5704 7.328 74.8453 6.83859 75.3347C6.34917 75.8241 6.07422 76.4879 6.07422 77.1801" fill="white"/>
<path d="M11.2937 79.7898H6.07422V85.0092H11.2937V79.7898Z" fill="white"/>
<path d="M11.293 85.0093H6.07353V87.619C6.07353 88.3111 6.34848 88.9749 6.8379 89.4643C7.32732 89.9538 7.99111 90.2287 8.68325 90.2287C9.37539 90.2287 10.0392 89.9538 10.5286 89.4643C11.018 88.9749 11.293 88.3111 11.293 87.619" fill="white"/>
<path d="M6.07422 111.107H11.2937V105.887H8.68394C7.9918 105.887 7.328 106.162 6.83859 106.652C6.34917 107.141 6.07422 107.805 6.07422 108.497" fill="white"/>
<path d="M11.293 111.107H6.07353V113.717C6.07353 114.409 6.34848 115.073 6.8379 115.562C7.32732 116.051 7.99111 116.326 8.68325 116.326C9.37539 116.326 10.0392 116.051 10.5286 115.562C11.018 115.073 11.293 114.409 11.293 113.717" fill="white"/>
<path d="M11.293 64.1323V69.3518H16.5124V66.742C16.5124 66.0499 16.2375 65.3861 15.748 64.8967C15.2586 64.4073 14.5948 64.1323 13.9027 64.1323" fill="white"/>
<path d="M16.5117 69.3518H11.2923V71.9615C11.2923 72.6537 11.5672 73.3175 12.0566 73.8069C12.5461 74.2963 13.2099 74.5712 13.902 74.5712C14.5941 74.5712 15.2579 74.2963 15.7474 73.8069C16.2368 73.3175 16.5117 72.6537 16.5117 71.9615" fill="white"/>
<path d="M11.293 105.887V111.107H13.9027C14.5948 111.107 15.2586 110.832 15.748 110.342C16.2375 109.853 16.5124 109.189 16.5124 108.497C16.5124 107.805 16.2375 107.141 15.748 106.652C15.2586 106.162 14.5948 105.887 13.9027 105.887" fill="white"/>
<path d="M16.5117 53.6924H21.7312V51.0827C21.7312 50.3905 21.4562 49.7267 20.9668 49.2373C20.4774 48.7479 19.8136 48.4729 19.1214 48.4729C18.4293 48.4729 17.7655 48.7479 17.2761 49.2373C16.7867 49.7267 16.5117 50.3905 16.5117 51.0827" fill="white"/>
<path d="M21.7312 53.6924H16.5117V58.9118H21.7312V53.6924Z" fill="white"/>
<path d="M21.7324 64.1323V58.9129H16.513V61.5226C16.513 62.2147 16.7879 62.8785 17.2774 63.368C17.7668 63.8574 18.4306 64.1323 19.1227 64.1323" fill="white"/>
<path d="M16.5117 85.0093H21.7312V79.7898H19.1214C18.4293 79.7898 17.7655 80.0648 17.2761 80.5542C16.7867 81.0436 16.5117 81.7074 16.5117 82.3996" fill="white"/>
<path d="M21.7312 85.0093H16.5117V90.2287H21.7312V85.0093Z" fill="white"/>
<path d="M21.7312 90.2285H16.5117V95.448H21.7312V90.2285Z" fill="white"/>
<path d="M21.7312 95.4482H16.5117V100.668H21.7312V95.4482Z" fill="white"/>
<path d="M21.7324 105.887V100.668H16.513V103.278C16.513 103.97 16.7879 104.634 17.2774 105.123C17.7668 105.613 18.4306 105.887 19.1227 105.887" fill="white"/>
<path d="M26.9519 53.6924H21.7324V58.9118H26.9519V53.6924Z" fill="white"/>
<path d="M26.9531 58.9128H21.7337V64.1323H24.3434C25.0355 64.1323 25.6993 63.8573 26.1888 63.3679C26.6782 62.8785 26.9531 62.2147 26.9531 61.5226" fill="white"/>
<path d="M21.7324 79.7898H26.9519V74.5704H24.3421C23.65 74.5704 22.9862 74.8453 22.4968 75.3347C22.0074 75.8241 21.7324 76.4879 21.7324 77.1801" fill="white"/>
<path d="M26.9519 79.7898H21.7324V85.0092H26.9519V79.7898Z" fill="white"/>
<path d="M26.9519 85.009H21.7324V90.2285H26.9519V85.009Z" fill="white"/>
<path d="M26.9519 100.668H21.7324V105.887H26.9519V100.668Z" fill="white"/>
<path d="M26.9531 53.6924H32.1726V48.4729H29.5628C28.8707 48.4729 28.2069 48.7479 27.7175 49.2373C27.2281 49.7267 26.9531 50.3905 26.9531 51.0827" fill="white"/>
<path d="M32.1719 53.6924H26.9524V58.9118H29.5622C30.2543 58.9118 30.9181 58.6369 31.4075 58.1474C31.8969 57.658 32.1719 56.9942 32.1719 56.3021" fill="white"/>
<path d="M26.9531 69.3518H32.1726V66.7421C32.1726 66.0499 31.8976 65.3862 31.4082 64.8967C30.9188 64.4073 30.255 64.1324 29.5628 64.1324C28.8707 64.1324 28.2069 64.4073 27.7175 64.8967C27.2281 65.3862 26.9531 66.0499 26.9531 66.7421" fill="white"/>
<path d="M32.1726 69.3518H26.9531V74.5712H32.1726V69.3518Z" fill="white"/>
<path d="M32.1719 74.5703H26.9524V79.7897H29.5622C30.2543 79.7897 30.9181 79.5148 31.4075 79.0254C31.8969 78.536 32.1719 77.8722 32.1719 77.18" fill="white"/>
<path d="M26.9531 85.009V90.2285H29.5628C30.255 90.2285 30.9188 89.9535 31.4082 89.4641C31.8976 88.9747 32.1726 88.3109 32.1726 87.6188C32.1726 86.9266 31.8976 86.2628 31.4082 85.7734C30.9188 85.284 30.255 85.009 29.5628 85.009" fill="white"/>
<path d="M26.9531 100.668H32.1726V95.4483H29.5628C28.8707 95.4483 28.2069 95.7232 27.7175 96.2127C27.2281 96.7021 26.9531 97.3659 26.9531 98.058" fill="white"/>
<path d="M32.1719 100.668H26.9524V105.887H29.5622C30.2543 105.887 30.9181 105.612 31.4075 105.123C31.8969 104.633 32.1719 103.97 32.1719 103.277" fill="white"/>
<path d="M37.3913 48.4727H32.1719V53.6921H37.3913V48.4727Z" fill="white"/>
<path d="M37.3913 69.3518H32.1719V74.5712H37.3913V69.3518Z" fill="white"/>
<path d="M32.1719 95.4482V100.668H34.7816C35.4737 100.668 36.1375 100.393 36.6269 99.9033C37.1164 99.4139 37.3913 98.7501 37.3913 98.058C37.3913 97.3658 37.1164 96.702 36.6269 96.2126C36.1375 95.7232 35.4737 95.4482 34.7816 95.4482" fill="white"/>
<path d="M32.1719 111.107H37.3913V108.497C37.3913 107.805 37.1164 107.141 36.6269 106.652C36.1375 106.162 35.4737 105.887 34.7816 105.887C34.0895 105.887 33.4257 106.162 32.9362 106.652C32.4468 107.141 32.1719 107.805 32.1719 108.497" fill="white"/>
<path d="M37.3906 116.325V111.106H32.1712V113.716C32.1712 114.408 32.4461 115.072 32.9356 115.561C33.425 116.05 34.0888 116.325 34.7809 116.325" fill="white"/>
<path d="M37.3906 48.4727V53.6921H40.0003C40.6925 53.6921 41.3563 53.4171 41.8457 52.9277C42.3351 52.4383 42.6101 51.7745 42.6101 51.0824C42.6101 50.3902 42.3351 49.7264 41.8457 49.237C41.3563 48.7476 40.6925 48.4727 40.0003 48.4727" fill="white"/>
<path d="M40.0003 64.1323C41.4417 64.1323 42.6101 62.9639 42.6101 61.5226C42.6101 60.0813 41.4417 58.9128 40.0003 58.9128C38.559 58.9128 37.3906 60.0813 37.3906 61.5226C37.3906 62.9639 38.559 64.1323 40.0003 64.1323Z" fill="white"/>
<path d="M42.6101 69.3518H37.3906V74.5712H42.6101V69.3518Z" fill="white"/>
<path d="M40.0003 85.0092C41.4417 85.0092 42.6101 83.8408 42.6101 82.3995C42.6101 80.9582 41.4417 79.7898 40.0003 79.7898C38.559 79.7898 37.3906 80.9582 37.3906 82.3995C37.3906 83.8408 38.559 85.0092 40.0003 85.0092Z" fill="white"/>
<path d="M42.6113 95.4482V90.2288H40.0016C39.3095 90.2288 38.6457 90.5038 38.1563 90.9932C37.6668 91.4826 37.3919 92.1464 37.3919 92.8385C37.3919 93.5307 37.6668 94.1945 38.1563 94.6839C38.6457 95.1733 39.3095 95.4482 40.0016 95.4482" fill="white"/>
<path d="M40.0003 105.887C41.4417 105.887 42.6101 104.719 42.6101 103.277C42.6101 101.836 41.4417 100.668 40.0003 100.668C38.559 100.668 37.3906 101.836 37.3906 103.277C37.3906 104.719 38.559 105.887 40.0003 105.887Z" fill="white"/>
<path d="M42.6101 111.107H37.3906V116.326H42.6101V111.107Z" fill="white"/>
<path d="M42.6113 69.3518V74.5712H47.8308V71.9615C47.8308 71.2694 47.5558 70.6056 47.0664 70.1162C46.577 69.6268 45.9132 69.3518 45.221 69.3518" fill="white"/>
<path d="M47.832 79.7898V74.5704H42.6126V77.1801C42.6126 77.8722 42.8875 78.536 43.377 79.0254C43.8664 79.5148 44.5302 79.7898 45.2223 79.7898" fill="white"/>
<path d="M47.8308 90.2285H42.6113V95.448H47.8308V90.2285Z" fill="white"/>
<path d="M42.6113 111.107H47.8308V108.497C47.8308 107.805 47.5558 107.141 47.0664 106.652C46.577 106.162 45.9132 105.887 45.221 105.887C44.5289 105.887 43.8651 106.162 43.3757 106.652C42.8863 107.141 42.6113 107.805 42.6113 108.497" fill="white"/>
<path d="M47.8308 111.107H42.6113V116.326H47.8308V111.107Z" fill="white"/>
<path d="M53.0469 17.157V11.9375H50.4372C49.745 11.9375 49.0812 12.2125 48.5918 12.7019C48.1024 13.1913 47.8274 13.8551 47.8274 14.5473C47.8274 15.2394 48.1024 15.9032 48.5918 16.3926C49.0812 16.882 49.745 17.157 50.4372 17.157" fill="white"/>
<path d="M53.0469 32.8142V27.5948H50.4372C49.745 27.5948 49.0812 27.8697 48.5918 28.3591C48.1024 28.8486 47.8274 29.5124 47.8274 30.2045C47.8274 30.8966 48.1024 31.5604 48.5918 32.0498C49.0812 32.5393 49.745 32.8142 50.4372 32.8142" fill="white"/>
<path d="M50.4417 43.2531C51.8831 43.2531 53.0515 42.0847 53.0515 40.6434C53.0515 39.2021 51.8831 38.0337 50.4417 38.0337C49.0004 38.0337 47.832 39.2021 47.832 40.6434C47.832 42.0847 49.0004 43.2531 50.4417 43.2531Z" fill="white"/>
<path d="M47.832 53.6924H53.0515V51.0827C53.0515 50.3905 52.7765 49.7267 52.2871 49.2373C51.7977 48.7479 51.1339 48.4729 50.4417 48.4729C49.7496 48.4729 49.0858 48.7479 48.5964 49.2373C48.107 49.7267 47.832 50.3905 47.832 51.0827" fill="white"/>
<path d="M53.0469 53.6924H47.8274V56.3021C47.8274 56.9942 48.1024 57.658 48.5918 58.1475C49.0812 58.6369 49.745 58.9118 50.4372 58.9118C51.1293 58.9118 51.7931 58.6369 52.2825 58.1475C52.7719 57.658 53.0469 56.9942 53.0469 56.3021" fill="white"/>
<path d="M53.0469 69.3518V64.1324H50.4372C49.745 64.1324 49.0812 64.4073 48.5918 64.8967C48.1024 65.3862 47.8274 66.0499 47.8274 66.7421C47.8274 67.4342 48.1024 68.098 48.5918 68.5874C49.0812 69.0769 49.745 69.3518 50.4372 69.3518" fill="white"/>
<path d="M47.832 74.5703V79.7897H53.0515V77.18C53.0515 76.4879 52.7765 75.8241 52.2871 75.3347C51.7977 74.8453 51.1339 74.5703 50.4417 74.5703" fill="white"/>
<path d="M53.0515 79.7898H47.832V85.0092H53.0515V79.7898Z" fill="white"/>
<path d="M53.0515 85.009H47.832V90.2285H53.0515V85.009Z" fill="white"/>
<path d="M53.0515 90.2285H47.832V95.448H53.0515V90.2285Z" fill="white"/>
<path d="M47.832 111.107V116.326H53.0515V113.717C53.0515 113.025 52.7765 112.361 52.2871 111.871C51.7977 111.382 51.1339 111.107 50.4417 111.107" fill="white"/>
<path d="M53.0469 116.325H47.8274V118.935C47.8274 119.627 48.1024 120.291 48.5918 120.781C49.0812 121.27 49.745 121.545 50.4372 121.545C51.1293 121.545 51.7931 121.27 52.2825 120.781C52.7719 120.291 53.0469 119.627 53.0469 118.935" fill="white"/>
<path d="M47.832 131.984H53.0515V126.765H50.4417C49.7496 126.765 49.0858 127.04 48.5964 127.529C48.107 128.018 47.832 128.682 47.832 129.374" fill="white"/>
<path d="M53.0469 137.203V131.984H47.8274V134.594C47.8274 135.286 48.1024 135.95 48.5918 136.439C49.0812 136.928 49.745 137.203 50.4372 137.203" fill="white"/>
<path d="M50.4417 147.642C51.8831 147.642 53.0515 146.474 53.0515 145.033C53.0515 143.591 51.8831 142.423 50.4417 142.423C49.0004 142.423 47.832 143.591 47.832 145.033C47.832 146.474 49.0004 147.642 50.4417 147.642Z" fill="white"/>
<path d="M53.0469 11.9375H58.2663V9.32778C58.2663 8.63564 57.9914 7.97185 57.5019 7.48243C57.0125 6.99301 56.3487 6.71806 55.6566 6.71806C54.9645 6.71806 54.3007 6.99301 53.8112 7.48243C53.3218 7.97185 53.0469 8.63564 53.0469 9.32778" fill="white"/>
<path d="M58.2663 11.9375H53.0469V17.1569H58.2663V11.9375Z" fill="white"/>
<path d="M58.2695 22.3765V17.157H53.0501V19.7667C53.0501 20.4589 53.325 21.1227 53.8145 21.6121C54.3039 22.1015 54.9677 22.3765 55.6598 22.3765" fill="white"/>
<path d="M53.0469 27.5959V32.8154H58.2663V30.2057C58.2663 29.5135 57.9914 28.8497 57.5019 28.3603C57.0125 27.8709 56.3487 27.5959 55.6566 27.5959" fill="white"/>
<path d="M58.2695 38.0337V32.8143H53.0501V35.424C53.0501 36.1161 53.325 36.7799 53.8145 37.2693C54.3039 37.7587 54.9677 38.0337 55.6598 38.0337" fill="white"/>
<path d="M58.2663 64.1323H53.0469V69.3518H58.2663V64.1323Z" fill="white"/>
<path d="M53.0469 90.2285V95.448H58.2663V92.8382C58.2663 92.1461 57.9914 91.4823 57.5019 90.9929C57.0125 90.5035 56.3487 90.2285 55.6566 90.2285" fill="white"/>
<path d="M58.2663 95.4482H53.0469V100.668H58.2663V95.4482Z" fill="white"/>
<path d="M58.2663 100.668H53.0469V105.887H58.2663V100.668Z" fill="white"/>
<path d="M58.2695 111.107V105.887H53.0501V108.497C53.0501 109.189 53.325 109.853 53.8145 110.343C54.3039 110.832 54.9677 111.107 55.6598 111.107" fill="white"/>
<path d="M53.0469 126.764H58.2663V124.155C58.2663 123.463 57.9914 122.799 57.5019 122.309C57.0125 121.82 56.3487 121.545 55.6566 121.545C54.9645 121.545 54.3007 121.82 53.8112 122.309C53.3218 122.799 53.0469 123.463 53.0469 124.155" fill="white"/>
<path d="M58.2663 126.764H53.0469V131.984H58.2663V126.764Z" fill="white"/>
<path d="M58.2695 131.984H53.0501V137.204H55.6598C56.352 137.204 57.0157 136.929 57.5052 136.439C57.9946 135.95 58.2695 135.286 58.2695 134.594" fill="white"/>
<path d="M53.0469 152.862H58.2663V150.252C58.2663 149.56 57.9914 148.896 57.5019 148.407C57.0125 147.918 56.3487 147.643 55.6566 147.643C54.9645 147.643 54.3007 147.918 53.8112 148.407C53.3218 148.896 53.0469 149.56 53.0469 150.252" fill="white"/>
<path d="M58.2695 158.082V152.862H53.0501V155.472C53.0501 156.164 53.325 156.828 53.8145 157.317C54.3039 157.807 54.9677 158.082 55.6598 158.082" fill="white"/>
<path d="M63.489 17.1567H58.2695V22.3762H63.489V17.1567Z" fill="white"/>
<path d="M63.489 32.8145H58.2695V38.0339H63.489V32.8145Z" fill="white"/>
<path d="M63.489 38.0337H58.2695V43.2531H63.489V38.0337Z" fill="white"/>
<path d="M63.489 43.2534H58.2695V48.4729H63.489V43.2534Z" fill="white"/>
<path d="M63.489 48.4727H58.2695V53.6921H63.489V48.4727Z" fill="white"/>
<path d="M63.4902 53.6924H58.2708V56.3021C58.2708 56.9942 58.5457 57.658 59.0352 58.1475C59.5246 58.6369 60.1884 58.9118 60.8805 58.9118C61.5727 58.9118 62.2365 58.6369 62.7259 58.1475C63.2153 57.658 63.4902 56.9942 63.4902 56.3021" fill="white"/>
<path d="M58.2695 64.1323V69.3518H63.489V66.742C63.489 66.0499 63.214 65.3861 62.7246 64.8967C62.2352 64.4073 61.5714 64.1323 60.8792 64.1323" fill="white"/>
<path d="M63.489 69.3518H58.2695V74.5712H63.489V69.3518Z" fill="white"/>
<path d="M63.489 74.5703H58.2695V79.7897H63.489V74.5703Z" fill="white"/>
<path d="M63.489 79.7898H58.2695V85.0092H63.489V79.7898Z" fill="white"/>
<path d="M63.4902 90.2285V85.0091H58.2708V87.6188C58.2708 88.3109 58.5457 88.9747 59.0352 89.4641C59.5246 89.9536 60.1884 90.2285 60.8805 90.2285" fill="white"/>
<path d="M63.489 95.4482H58.2695V100.668H63.489V95.4482Z" fill="white"/>
<path d="M63.489 100.668H58.2695V105.887H63.489V100.668Z" fill="white"/>
<path d="M63.489 105.887H58.2695V111.107H63.489V105.887Z" fill="white"/>
<path d="M63.4902 121.545V116.325H60.8805C60.1884 116.325 59.5246 116.6 59.0352 117.09C58.5457 117.579 58.2708 118.243 58.2708 118.935C58.2708 119.627 58.5457 120.291 59.0352 120.781C59.5246 121.27 60.1884 121.545 60.8805 121.545" fill="white"/>
<path d="M63.489 126.765H58.2695V131.984H63.489V126.765Z" fill="white"/>
<path d="M58.2695 142.423H63.489V139.813C63.489 139.121 63.214 138.457 62.7246 137.968C62.2352 137.478 61.5714 137.203 60.8792 137.203C60.1871 137.203 59.5233 137.478 59.0339 137.968C58.5445 138.457 58.2695 139.121 58.2695 139.813" fill="white"/>
<path d="M63.4902 142.423H58.2708V145.033C58.2708 145.725 58.5457 146.389 59.0352 146.878C59.5246 147.367 60.1884 147.642 60.8805 147.642C61.5727 147.642 62.2365 147.367 62.7259 146.878C63.2153 146.389 63.4902 145.725 63.4902 145.033" fill="white"/>
<path d="M63.489 152.862H58.2695V158.081H63.489V152.862Z" fill="white"/>
<path d="M63.4902 11.9375H68.7097V9.32778C68.7097 8.63564 68.4347 7.97185 67.9453 7.48243C67.4559 6.99301 66.7921 6.71806 66.1 6.71806C65.4078 6.71806 64.744 6.99301 64.2546 7.48243C63.7652 7.97185 63.4902 8.63564 63.4902 9.32778" fill="white"/>
<path d="M68.7097 11.9375H63.4902V17.1569H68.7097V11.9375Z" fill="white"/>
<path d="M68.7097 17.157H63.4902V22.3764H68.7097V17.157Z" fill="white"/>
<path d="M68.7097 22.3765H63.4902V27.5959H68.7097V22.3765Z" fill="white"/>
<path d="M68.7097 27.5959H63.4902V32.8154H68.7097V27.5959Z" fill="white"/>
<path d="M68.7109 32.8142H63.4915V38.0336H66.1012C66.7934 38.0336 67.4572 37.7587 67.9466 37.2693C68.436 36.7799 68.7109 36.1161 68.7109 35.4239" fill="white"/>
<path d="M68.7097 43.2534H63.4902V48.4729H68.7097V43.2534Z" fill="white"/>
<path d="M68.7109 64.1323V58.9129H66.1012C65.4091 58.9129 64.7453 59.1878 64.2559 59.6773C63.7665 60.1667 63.4915 60.8305 63.4915 61.5226C63.4915 62.2147 63.7665 62.8785 64.2559 63.368C64.7453 63.8574 65.4091 64.1323 66.1012 64.1323" fill="white"/>
<path d="M63.4902 69.3518V74.5712H68.7097V71.9615C68.7097 71.2694 68.4347 70.6056 67.9453 70.1162C67.4559 69.6268 66.7921 69.3518 66.1 69.3518" fill="white"/>
<path d="M68.7097 74.5703H63.4902V79.7897H68.7097V74.5703Z" fill="white"/>
<path d="M68.7097 79.7898H63.4902V85.0092H68.7097V79.7898Z" fill="white"/>
<path d="M68.7097 85.009H63.4902V90.2285H68.7097V85.009Z" fill="white"/>
<path d="M68.7097 95.4482H63.4902V100.668H68.7097V95.4482Z" fill="white"/>
<path d="M63.4902 105.887V111.107H68.7097V108.497C68.7097 107.805 68.4347 107.141 67.9453 106.652C67.4559 106.162 66.7921 105.887 66.1 105.887" fill="white"/>
<path d="M68.7097 111.107H63.4902V116.326H68.7097V111.107Z" fill="white"/>
<path d="M68.7109 116.325H63.4915V121.545H66.1012C66.7934 121.545 67.4572 121.27 67.9466 120.781C68.436 120.291 68.7109 119.627 68.7109 118.935" fill="white"/>
<path d="M68.7097 126.764H63.4902V131.984H68.7097V126.764Z" fill="white"/>
<path d="M68.7109 131.984H63.4915V134.594C63.4915 135.286 63.7665 135.95 64.2559 136.439C64.7453 136.929 65.4091 137.204 66.1012 137.204C66.7934 137.204 67.4572 136.929 67.9466 136.439C68.436 135.95 68.7109 135.286 68.7109 134.594" fill="white"/>
<path d="M63.4902 152.862H68.7097V150.252C68.7097 149.56 68.4347 148.896 67.9453 148.407C67.4559 147.918 66.7921 147.643 66.1 147.643C65.4078 147.643 64.744 147.918 64.2546 148.407C63.7652 148.896 63.4902 149.56 63.4902 150.252" fill="white"/>
<path d="M68.7097 152.862H63.4902V158.081H68.7097V152.862Z" fill="white"/>
<path d="M68.7109 43.2534H73.9304V40.6437C73.9304 39.9516 73.6554 39.2878 73.166 38.7983C72.6766 38.3089 72.0128 38.034 71.3207 38.034C70.6285 38.034 69.9647 38.3089 69.4753 38.7983C68.9859 39.2878 68.7109 39.9516 68.7109 40.6437" fill="white"/>
<path d="M73.9258 43.2534H68.7063V48.4729H71.3161C72.0082 48.4729 72.672 48.1979 73.1614 47.7085C73.6508 47.2191 73.9258 46.5553 73.9258 45.8631" fill="white"/>
<path d="M68.7109 58.9128V64.1323H73.9304V61.5226C73.9304 60.8304 73.6554 60.1666 73.166 59.6772C72.6766 59.1878 72.0128 58.9128 71.3207 58.9128" fill="white"/>
<path d="M73.9258 69.3518V64.1324H68.7063V66.7421C68.7063 67.4342 68.9813 68.098 69.4707 68.5874C69.9601 69.0769 70.6239 69.3518 71.3161 69.3518" fill="white"/>
<path d="M68.7109 74.5703V79.7897H71.3207C72.0128 79.7897 72.6766 79.5148 73.166 79.0254C73.6554 78.536 73.9304 77.8722 73.9304 77.18C73.9304 76.4879 73.6554 75.8241 73.166 75.3347C72.6766 74.8453 72.0128 74.5703 71.3207 74.5703" fill="white"/>
<path d="M73.9304 85.009H68.7109V90.2285H73.9304V85.009Z" fill="white"/>
<path d="M68.7109 95.4482V100.668H71.3207C72.0128 100.668 72.6766 100.393 73.166 99.9033C73.6554 99.4139 73.9304 98.7501 73.9304 98.058C73.9304 97.3658 73.6554 96.702 73.166 96.2126C72.6766 95.7232 72.0128 95.4482 71.3207 95.4482" fill="white"/>
<path d="M68.7109 111.107V116.326H71.3207C72.0128 116.326 72.6766 116.051 73.166 115.562C73.6554 115.073 73.9304 114.409 73.9304 113.717C73.9304 113.025 73.6554 112.361 73.166 111.871C72.6766 111.382 72.0128 111.107 71.3207 111.107" fill="white"/>
<path d="M68.7109 126.764V131.984H71.3207C72.0128 131.984 72.6766 131.709 73.166 131.219C73.6554 130.73 73.9304 130.066 73.9304 129.374C73.9304 128.682 73.6554 128.018 73.166 127.529C72.6766 127.039 72.0128 126.764 71.3207 126.764" fill="white"/>
<path d="M71.3207 142.423C72.762 142.423 73.9304 141.254 73.9304 139.813C73.9304 138.372 72.762 137.203 71.3207 137.203C69.8793 137.203 68.7109 138.372 68.7109 139.813C68.7109 141.254 69.8793 142.423 71.3207 142.423Z" fill="white"/>
<path d="M73.9304 152.862H68.7109V158.081H73.9304V152.862Z" fill="white"/>
<path d="M76.5355 17.1569C77.9768 17.1569 79.1452 15.9885 79.1452 14.5472C79.1452 13.1059 77.9768 11.9375 76.5355 11.9375C75.0942 11.9375 73.9258 13.1059 73.9258 14.5472C73.9258 15.9885 75.0942 17.1569 76.5355 17.1569Z" fill="white"/>
<path d="M73.9258 27.5959H79.1452V22.3765H76.5355C75.8434 22.3765 75.1796 22.6515 74.6902 23.1409C74.2007 23.6303 73.9258 24.2941 73.9258 24.9862" fill="white"/>
<path d="M79.1452 27.5959H73.9258V32.8154H79.1452V27.5959Z" fill="white"/>
<path d="M79.1445 32.8145H73.9251V35.4242C73.9251 36.1163 74.2 36.7801 74.6895 37.2695C75.1789 37.7589 75.8427 38.0339 76.5348 38.0339C77.227 38.0339 77.8907 37.7589 78.3802 37.2695C78.8696 36.7801 79.1445 36.1163 79.1445 35.4242" fill="white"/>
<path d="M73.9258 53.6924H79.1452V48.4729H76.5355C75.8434 48.4729 75.1796 48.7479 74.6901 49.2373C74.2007 49.7267 73.9258 50.3905 73.9258 51.0827" fill="white"/>
<path d="M79.1445 58.9128V53.6934H73.9251V56.3031C73.9251 56.9953 74.2 57.6591 74.6895 58.1485C75.1789 58.6379 75.8427 58.9128 76.5348 58.9128" fill="white"/>
<path d="M79.1452 64.1323H73.9258V69.3518H79.1452V64.1323Z" fill="white"/>
<path d="M73.9258 85.009H79.1452V79.7896H76.5355C75.8434 79.7896 75.1796 80.0645 74.6901 80.554C74.2007 81.0434 73.9258 81.7072 73.9258 82.3993" fill="white"/>
<path d="M79.1445 85.0093H73.9251V90.2287H76.5348C77.227 90.2287 77.8907 89.9538 78.3802 89.4643C78.8696 88.9749 79.1445 88.3111 79.1445 87.619" fill="white"/>
<path d="M76.5355 105.887C77.9768 105.887 79.1452 104.719 79.1452 103.277C79.1452 101.836 77.9768 100.668 76.5355 100.668C75.0942 100.668 73.9258 101.836 73.9258 103.277C73.9258 104.719 75.0942 105.887 76.5355 105.887Z" fill="white"/>
<path d="M76.5355 126.764C77.9768 126.764 79.1452 125.596 79.1452 124.155C79.1452 122.713 77.9768 121.545 76.5355 121.545C75.0942 121.545 73.9258 122.713 73.9258 124.155C73.9258 125.596 75.0942 126.764 76.5355 126.764Z" fill="white"/>
<path d="M79.1445 137.203V131.984H76.5348C75.8427 131.984 75.1789 132.259 74.6895 132.748C74.2 133.238 73.9251 133.902 73.9251 134.594C73.9251 135.286 74.2 135.95 74.6895 136.439C75.1789 136.928 75.8427 137.203 76.5348 137.203" fill="white"/>
<path d="M76.5355 147.642C77.9768 147.642 79.1452 146.474 79.1452 145.033C79.1452 143.591 77.9768 142.423 76.5355 142.423C75.0942 142.423 73.9258 143.591 73.9258 145.033C73.9258 146.474 75.0942 147.642 76.5355 147.642Z" fill="white"/>
<path d="M79.1452 152.862H73.9258V158.081H79.1452V152.862Z" fill="white"/>
<path d="M84.364 22.3765H79.1445V27.5959H84.364V22.3765Z" fill="white"/>
<path d="M81.7542 43.2531C83.1956 43.2531 84.364 42.0847 84.364 40.6434C84.364 39.2021 83.1956 38.0337 81.7542 38.0337C80.3129 38.0337 79.1445 39.2021 79.1445 40.6434C79.1445 42.0847 80.3129 43.2531 81.7542 43.2531Z" fill="white"/>
<path d="M84.364 48.4727H79.1445V53.6921H84.364V48.4727Z" fill="white"/>
<path d="M84.364 53.6924H79.1445V58.9118H84.364V53.6924Z" fill="white"/>
<path d="M84.364 58.9128H79.1445V64.1323H84.364V58.9128Z" fill="white"/>
<path d="M84.364 64.1323H79.1445V69.3518H84.364V64.1323Z" fill="white"/>
<path d="M84.364 69.3518H79.1445V74.5712H84.364V69.3518Z" fill="white"/>
<path d="M84.364 74.5703H79.1445V79.7897H84.364V74.5703Z" fill="white"/>
<path d="M84.3691 79.7898H79.1497V85.0092H81.7594C82.4516 85.0092 83.1154 84.7343 83.6048 84.2449C84.0942 83.7554 84.3691 83.0917 84.3691 82.3995" fill="white"/>
<path d="M84.3691 100.668V95.4483H81.7594C81.0673 95.4483 80.4035 95.7232 79.9141 96.2127C79.4247 96.7021 79.1497 97.3659 79.1497 98.058C79.1497 98.7501 79.4247 99.4139 79.9141 99.9034C80.4035 100.393 81.0673 100.668 81.7594 100.668" fill="white"/>
<path d="M79.1445 116.325H84.364V111.106H81.7542C81.0621 111.106 80.3983 111.381 79.9089 111.87C79.4195 112.36 79.1445 113.024 79.1445 113.716" fill="white"/>
<path d="M84.3691 121.545V116.325H79.1497V118.935C79.1497 119.627 79.4247 120.291 79.9141 120.781C80.4035 121.27 81.0673 121.545 81.7594 121.545" fill="white"/>
<path d="M79.1445 131.984V137.204H81.7542C82.4464 137.204 83.1102 136.929 83.5996 136.439C84.089 135.95 84.364 135.286 84.364 134.594C84.364 133.902 84.089 133.238 83.5996 132.748C83.1102 132.259 82.4464 131.984 81.7542 131.984" fill="white"/>
<path d="M84.364 152.862H79.1445V158.081H84.364V152.862Z" fill="white"/>
<path d="M89.584 11.9375V6.71806H86.9743C86.2821 6.71806 85.6183 6.99301 85.1289 7.48243C84.6395 7.97185 84.3645 8.63564 84.3645 9.32778C84.3645 10.0199 84.6395 10.6837 85.1289 11.1731C85.6183 11.6625 86.2821 11.9375 86.9743 11.9375" fill="white"/>
<path d="M84.3691 22.3765H89.5886V19.7667C89.5886 19.0746 89.3136 18.4108 88.8242 17.9214C88.3348 17.432 87.671 17.157 86.9789 17.157C86.2867 17.157 85.6229 17.432 85.1335 17.9214C84.6441 18.4108 84.3691 19.0746 84.3691 19.7667" fill="white"/>
<path d="M89.5886 22.3765H84.3691V27.5959H89.5886V22.3765Z" fill="white"/>
<path d="M89.584 38.0337V32.8143H86.9743C86.2821 32.8143 85.6183 33.0892 85.1289 33.5786C84.6395 34.068 84.3645 34.7318 84.3645 35.424C84.3645 36.1161 84.6395 36.7799 85.1289 37.2693C85.6183 37.7587 86.2821 38.0337 86.9743 38.0337" fill="white"/>
<path d="M84.3691 48.4729H89.5886V45.8632C89.5886 45.171 89.3136 44.5072 88.8242 44.0178C88.3348 43.5284 87.671 43.2535 86.9789 43.2535C86.2867 43.2535 85.6229 43.5284 85.1335 44.0178C84.6441 44.5072 84.3691 45.171 84.3691 45.8632" fill="white"/>
<path d="M89.584 48.4729H84.3645V53.6923H86.9743C87.6664 53.6923 88.3302 53.4174 88.8196 52.928C89.309 52.4386 89.584 51.7748 89.584 51.0826" fill="white"/>
<path d="M89.5886 58.9128H84.3691V64.1323H89.5886V58.9128Z" fill="white"/>
<path d="M89.5886 64.1323H84.3691V69.3518H89.5886V64.1323Z" fill="white"/>
<path d="M89.5886 69.3518H84.3691V74.5712H89.5886V69.3518Z" fill="white"/>
<path d="M89.5886 74.5703H84.3691V79.7897H89.5886V74.5703Z" fill="white"/>
<path d="M84.3691 95.4482H89.5886V92.8385C89.5886 92.1464 89.3136 91.4826 88.8242 90.9932C88.3348 90.5038 87.671 90.2288 86.9789 90.2288C86.2867 90.2288 85.6229 90.5038 85.1335 90.9932C84.6441 91.4826 84.3691 92.1464 84.3691 92.8385" fill="white"/>
<path d="M89.5886 95.4482H84.3691V100.668H89.5886V95.4482Z" fill="white"/>
<path d="M89.5886 100.668H84.3691V105.887H89.5886V100.668Z" fill="white"/>
<path d="M89.5886 105.887H84.3691V111.107H89.5886V105.887Z" fill="white"/>
<path d="M89.5886 111.107H84.3691V116.326H89.5886V111.107Z" fill="white"/>
<path d="M89.5886 116.325H84.3691V121.545H89.5886V116.325Z" fill="white"/>
<path d="M89.584 131.984V126.765H86.9743C86.2821 126.765 85.6183 127.04 85.1289 127.529C84.6395 128.018 84.3645 128.682 84.3645 129.374C84.3645 130.067 84.6395 130.73 85.1289 131.22C85.6183 131.709 86.2821 131.984 86.9743 131.984" fill="white"/>
<path d="M86.9789 142.423C88.4202 142.423 89.5886 141.254 89.5886 139.813C89.5886 138.372 88.4202 137.203 86.9789 137.203C85.5376 137.203 84.3691 138.372 84.3691 139.813C84.3691 141.254 85.5376 142.423 86.9789 142.423Z" fill="white"/>
<path d="M84.3691 152.862H89.5886V147.643H86.9789C86.2867 147.643 85.6229 147.918 85.1335 148.407C84.6441 148.896 84.3691 149.56 84.3691 150.252" fill="white"/>
<path d="M89.584 152.862H84.3645V158.081H86.9743C87.6664 158.081 88.3302 157.807 88.8196 157.317C89.309 156.828 89.584 156.164 89.584 155.472" fill="white"/>
<path d="M94.8034 6.71777H89.584V11.9372H94.8034V6.71777Z" fill="white"/>
<path d="M94.8047 11.9375H89.5853V14.5472C89.5853 15.2394 89.8602 15.9032 90.3496 16.3926C90.839 16.882 91.5028 17.1569 92.195 17.1569C92.8871 17.1569 93.5509 16.882 94.0403 16.3926C94.5297 15.9032 94.8047 15.2394 94.8047 14.5472" fill="white"/>
<path d="M94.8034 22.3765H89.584V27.5959H94.8034V22.3765Z" fill="white"/>
<path d="M94.8034 27.5959H89.584V32.8154H94.8034V27.5959Z" fill="white"/>
<path d="M94.8034 32.8142H89.584V38.0336H94.8034V32.8142Z" fill="white"/>
<path d="M94.8047 38.0337H89.5853V40.6434C89.5853 41.3356 89.8602 41.9993 90.3496 42.4888C90.839 42.9782 91.5028 43.2531 92.195 43.2531C92.8871 43.2531 93.5509 42.9782 94.0403 42.4888C94.5297 41.9993 94.8047 41.3356 94.8047 40.6434" fill="white"/>
<path d="M89.584 58.9128V64.1323H92.1937C92.8858 64.1323 93.5496 63.8573 94.0391 63.3679C94.5285 62.8785 94.8034 62.2147 94.8034 61.5226C94.8034 60.8304 94.5285 60.1666 94.0391 59.6772C93.5496 59.1878 92.8858 58.9128 92.1937 58.9128" fill="white"/>
<path d="M94.8034 74.5703H89.584V79.7897H94.8034V74.5703Z" fill="white"/>
<path d="M94.8047 85.009V79.7896H89.5853V82.3993C89.5853 83.0915 89.8602 83.7552 90.3496 84.2447C90.839 84.7341 91.5028 85.009 92.195 85.009" fill="white"/>
<path d="M89.584 100.668V105.887H92.1937C92.8858 105.887 93.5496 105.612 94.0391 105.123C94.5285 104.633 94.8034 103.97 94.8034 103.277C94.8034 102.585 94.5285 101.922 94.0391 101.432C93.5496 100.943 92.8858 100.668 92.1937 100.668" fill="white"/>
<path d="M94.8034 111.107H89.584V116.326H94.8034V111.107Z" fill="white"/>
<path d="M94.8047 116.325H89.5853V121.545H92.195C92.8871 121.545 93.5509 121.27 94.0403 120.781C94.5297 120.291 94.8047 119.627 94.8047 118.935" fill="white"/>
<path d="M89.584 126.764V131.984H92.1937C92.8858 131.984 93.5496 131.709 94.0391 131.219C94.5285 130.73 94.8034 130.066 94.8034 129.374C94.8034 128.682 94.5285 128.018 94.0391 127.529C93.5496 127.039 92.8858 126.764 92.1937 126.764" fill="white"/>
<path d="M89.584 147.643V152.862H92.1937C92.8858 152.862 93.5496 152.587 94.0391 152.098C94.5285 151.608 94.8034 150.944 94.8034 150.252C94.8034 149.56 94.5285 148.896 94.0391 148.407C93.5496 147.918 92.8858 147.643 92.1937 147.643" fill="white"/>
<path d="M94.8047 6.71777V11.9372H97.4144C98.1065 11.9372 98.7703 11.6623 99.2598 11.1728C99.7492 10.6834 100.024 10.0196 100.024 9.32749C100.024 8.63535 99.7492 7.97156 99.2598 7.48214C98.7703 6.99273 98.1065 6.71777 97.4144 6.71777" fill="white"/>
<path d="M94.8047 22.3765H100.024V19.7667C100.024 19.0746 99.7492 18.4108 99.2598 17.9214C98.7703 17.432 98.1065 17.157 97.4144 17.157C96.7223 17.157 96.0585 17.432 95.5691 17.9214C95.0796 18.4108 94.8047 19.0746 94.8047 19.7667" fill="white"/>
<path d="M100.024 22.3765H94.8047V27.5959H100.024V22.3765Z" fill="white"/>
<path d="M100.023 27.5959H94.804V32.8154H97.4137C98.1059 32.8154 98.7697 32.5404 99.2591 32.051C99.7485 31.5616 100.023 30.8978 100.023 30.2057" fill="white"/>
<path d="M100.023 69.3518V64.1324H97.4137C96.7216 64.1324 96.0578 64.4073 95.5684 64.8967C95.079 65.3862 94.804 66.0499 94.804 66.7421C94.804 67.4342 95.079 68.098 95.5684 68.5874C96.0578 69.0769 96.7216 69.3518 97.4137 69.3518" fill="white"/>
<path d="M100.024 74.5703H94.8047V79.7897H100.024V74.5703Z" fill="white"/>
<path d="M100.023 79.7898H94.804V85.0092H97.4137C98.1059 85.0092 98.7697 84.7343 99.2591 84.2449C99.7485 83.7554 100.023 83.0917 100.023 82.3995" fill="white"/>
<path d="M94.8047 95.4482H100.024V90.2288H97.4144C96.7223 90.2288 96.0585 90.5038 95.5691 90.9932C95.0796 91.4826 94.8047 92.1464 94.8047 92.8385" fill="white"/>
<path d="M100.023 100.668V95.4483H94.804V98.058C94.804 98.7501 95.079 99.4139 95.5684 99.9034C96.0578 100.393 96.7216 100.668 97.4137 100.668" fill="white"/>
<path d="M94.8047 111.107H100.024V108.497C100.024 107.805 99.7492 107.141 99.2598 106.652C98.7703 106.162 98.1065 105.887 97.4144 105.887C96.7223 105.887 96.0585 106.162 95.5691 106.652C95.0796 107.141 94.8047 107.805 94.8047 108.497" fill="white"/>
<path d="M100.023 111.107H94.804V116.326H97.4137C98.1059 116.326 98.7697 116.051 99.2591 115.562C99.7485 115.073 100.023 114.409 100.023 113.717" fill="white"/>
<path d="M97.4144 126.764C98.8557 126.764 100.024 125.596 100.024 124.155C100.024 122.713 98.8557 121.545 97.4144 121.545C95.9731 121.545 94.8047 122.713 94.8047 124.155C94.8047 125.596 95.9731 126.764 97.4144 126.764Z" fill="white"/>
<path d="M100.023 137.203V131.984H97.4137C96.7216 131.984 96.0578 132.259 95.5684 132.748C95.079 133.238 94.804 133.902 94.804 134.594C94.804 135.286 95.079 135.95 95.5684 136.439C96.0578 136.928 96.7216 137.203 97.4137 137.203" fill="white"/>
<path d="M100.023 158.082V152.862H97.4137C96.7216 152.862 96.0578 153.137 95.5684 153.626C95.079 154.116 94.804 154.78 94.804 155.472C94.804 156.164 95.079 156.828 95.5684 157.317C96.0578 157.807 96.7216 158.082 97.4137 158.082" fill="white"/>
<path d="M105.243 22.3765H100.023V27.5959H105.243V22.3765Z" fill="white"/>
<path d="M100.023 38.0337H105.243V32.8143H102.633C101.941 32.8143 101.277 33.0892 100.788 33.5786C100.298 34.068 100.023 34.7318 100.023 35.424" fill="white"/>
<path d="M105.248 38.0337H100.029V40.6434C100.029 41.3356 100.304 41.9993 100.793 42.4888C101.282 42.9782 101.946 43.2531 102.638 43.2531C103.33 43.2531 103.994 42.9782 104.484 42.4888C104.973 41.9993 105.248 41.3356 105.248 40.6434" fill="white"/>
<path d="M102.633 53.6921C104.074 53.6921 105.243 52.5237 105.243 51.0824C105.243 49.6411 104.074 48.4727 102.633 48.4727C101.192 48.4727 100.023 49.6411 100.023 51.0824C100.023 52.5237 101.192 53.6921 102.633 53.6921Z" fill="white"/>
<path d="M105.243 64.1323H100.023V69.3518H105.243V64.1323Z" fill="white"/>
<path d="M100.023 74.5703V79.7897H102.633C103.325 79.7897 103.989 79.5148 104.479 79.0254C104.968 78.536 105.243 77.8722 105.243 77.18C105.243 76.4879 104.968 75.8241 104.479 75.3347C103.989 74.8453 103.325 74.5703 102.633 74.5703" fill="white"/>
<path d="M100.023 90.2285V95.448H105.243V92.8382C105.243 92.1461 104.968 91.4823 104.479 90.9929C103.989 90.5035 103.325 90.2285 102.633 90.2285" fill="white"/>
<path d="M105.243 95.4482H100.023V100.668H105.243V95.4482Z" fill="white"/>
<path d="M100.023 131.984H105.243V126.765H102.633C101.941 126.765 101.277 127.04 100.788 127.529C100.298 128.018 100.023 128.682 100.023 129.374" fill="white"/>
<path d="M105.243 131.984H100.023V137.204H105.243V131.984Z" fill="white"/>
<path d="M105.243 137.203H100.023V142.423H105.243V137.203Z" fill="white"/>
<path d="M105.248 142.423H100.029V145.033C100.029 145.725 100.304 146.389 100.793 146.878C101.282 147.367 101.946 147.642 102.638 147.642C103.33 147.642 103.994 147.367 104.484 146.878C104.973 146.389 105.248 145.725 105.248 145.033" fill="white"/>
<path d="M105.243 152.862H100.023V158.081H105.243V152.862Z" fill="white"/>
<path d="M105.248 22.3765H110.467V19.7667C110.467 19.0746 110.193 18.4108 109.703 17.9214C109.214 17.432 108.55 17.157 107.858 17.157C107.166 17.157 106.502 17.432 106.012 17.9214C105.523 18.4108 105.248 19.0746 105.248 19.7667" fill="white"/>
<path d="M110.467 22.3765H105.248V27.5959H110.467V22.3765Z" fill="white"/>
<path d="M110.467 27.5959H105.248V32.8154H110.467V27.5959Z" fill="white"/>
<path d="M110.463 32.8142H105.243V38.0336H107.853C108.545 38.0336 109.209 37.7587 109.699 37.2693C110.188 36.7799 110.463 36.1161 110.463 35.4239" fill="white"/>
<path d="M107.858 48.4729C109.299 48.4729 110.467 47.3044 110.467 45.8631C110.467 44.4218 109.299 43.2534 107.858 43.2534C106.416 43.2534 105.248 44.4218 105.248 45.8631C105.248 47.3044 106.416 48.4729 107.858 48.4729Z" fill="white"/>
<path d="M107.858 58.9118C109.299 58.9118 110.467 57.7434 110.467 56.3021C110.467 54.8608 109.299 53.6924 107.858 53.6924C106.416 53.6924 105.248 54.8608 105.248 56.3021C105.248 57.7434 106.416 58.9118 107.858 58.9118Z" fill="white"/>
<path d="M105.248 64.1323V69.3518H110.467V66.742C110.467 66.0499 110.193 65.3861 109.703 64.8967C109.214 64.4073 108.55 64.1323 107.858 64.1323" fill="white"/>
<path d="M110.463 74.5703V69.3509H105.243V71.9606C105.243 72.6527 105.518 73.3165 106.008 73.8059C106.497 74.2954 107.161 74.5703 107.853 74.5703" fill="white"/>
<path d="M110.467 95.4482H105.248V100.668H110.467V95.4482Z" fill="white"/>
<path d="M110.467 100.668H105.248V105.887H110.467V100.668Z" fill="white"/>
<path d="M110.467 105.887H105.248V111.107H110.467V105.887Z" fill="white"/>
<path d="M110.463 116.325V111.106H105.243V113.716C105.243 114.408 105.518 115.072 106.008 115.561C106.497 116.05 107.161 116.325 107.853 116.325" fill="white"/>
<path d="M110.467 126.764H105.248V131.984H110.467V126.764Z" fill="white"/>
<path d="M105.248 137.203V142.423H107.858C108.55 142.423 109.214 142.148 109.703 141.658C110.193 141.169 110.467 140.505 110.467 139.813C110.467 139.121 110.193 138.457 109.703 137.968C109.214 137.478 108.55 137.203 107.858 137.203" fill="white"/>
<path d="M110.467 152.862H105.248V158.081H110.467V152.862Z" fill="white"/>
<path d="M110.463 11.9375H115.682V9.32778C115.682 8.63564 115.407 7.97185 114.918 7.48243C114.429 6.99301 113.765 6.71806 113.073 6.71806C112.38 6.71806 111.717 6.99301 111.227 7.48243C110.738 7.97185 110.463 8.63564 110.463 9.32778" fill="white"/>
<path d="M115.684 11.9375H110.464V14.5472C110.464 15.2394 110.739 15.9032 111.229 16.3926C111.718 16.882 112.382 17.1569 113.074 17.1569C113.766 17.1569 114.43 16.882 114.919 16.3926C115.409 15.9032 115.684 15.2394 115.684 14.5472" fill="white"/>
<path d="M110.463 27.5959V32.8154H113.073C113.765 32.8154 114.429 32.5404 114.918 32.051C115.407 31.5616 115.682 30.8978 115.682 30.2057C115.682 29.5135 115.407 28.8497 114.918 28.3603C114.429 27.8709 113.765 27.5959 113.073 27.5959" fill="white"/>
<path d="M113.073 43.2531C114.514 43.2531 115.682 42.0847 115.682 40.6434C115.682 39.2021 114.514 38.0337 113.073 38.0337C111.631 38.0337 110.463 39.2021 110.463 40.6434C110.463 42.0847 111.631 43.2531 113.073 43.2531Z" fill="white"/>
<path d="M115.684 53.6924V48.4729H113.074C112.382 48.4729 111.718 48.7479 111.229 49.2373C110.739 49.7267 110.464 50.3905 110.464 51.0827C110.464 51.7748 110.739 52.4386 111.229 52.928C111.718 53.4174 112.382 53.6924 113.074 53.6924" fill="white"/>
<path d="M110.463 69.3518V74.5712H113.073C113.765 74.5712 114.429 74.2963 114.918 73.8069C115.407 73.3175 115.682 72.6537 115.682 71.9615C115.682 71.2694 115.407 70.6056 114.918 70.1162C114.429 69.6268 113.765 69.3518 113.073 69.3518" fill="white"/>
<path d="M115.684 90.2285V85.0091H113.074C112.382 85.0091 111.718 85.284 111.229 85.7734C110.739 86.2629 110.464 86.9267 110.464 87.6188C110.464 88.3109 110.739 88.9747 111.229 89.4641C111.718 89.9536 112.382 90.2285 113.074 90.2285" fill="white"/>
<path d="M115.682 95.4482H110.463V100.668H115.682V95.4482Z" fill="white"/>
<path d="M115.682 105.887H110.463V111.107H115.682V105.887Z" fill="white"/>
<path d="M115.682 111.107H110.463V116.326H115.682V111.107Z" fill="white"/>
<path d="M115.682 116.325H110.463V121.545H115.682V116.325Z" fill="white"/>
<path d="M115.682 121.545H110.463V126.764H115.682V121.545Z" fill="white"/>
<path d="M115.682 126.764H110.463V131.984H115.682V126.764Z" fill="white"/>
<path d="M115.684 137.203V131.984H110.464V134.594C110.464 135.286 110.739 135.95 111.229 136.439C111.718 136.928 112.382 137.203 113.074 137.203" fill="white"/>
<path d="M115.682 152.862H110.463V158.081H115.682V152.862Z" fill="white"/>
<path d="M115.684 48.4729V53.6923H120.903V51.0826C120.903 50.3905 120.628 49.7267 120.139 49.2373C119.649 48.7479 118.985 48.4729 118.293 48.4729" fill="white"/>
<path d="M120.902 58.9128V53.6934H115.683V56.3031C115.683 56.9953 115.958 57.6591 116.447 58.1485C116.937 58.6379 117.6 58.9128 118.293 58.9128" fill="white"/>
<path d="M115.684 79.7898H120.903V74.5704H118.293C117.601 74.5704 116.937 74.8453 116.448 75.3347C115.959 75.8241 115.684 76.4879 115.684 77.1801" fill="white"/>
<path d="M120.903 79.7898H115.684V85.0092H120.903V79.7898Z" fill="white"/>
<path d="M120.903 85.009H115.684V90.2285H120.903V85.009Z" fill="white"/>
<path d="M115.684 95.4482V100.668H120.903V98.058C120.903 97.3658 120.628 96.702 120.139 96.2126C119.649 95.7232 118.985 95.4482 118.293 95.4482" fill="white"/>
<path d="M120.903 100.668H115.684V105.887H120.903V100.668Z" fill="white"/>
<path d="M120.903 105.887H115.684V111.107H120.903V105.887Z" fill="white"/>
<path d="M120.903 111.107H115.684V116.326H120.903V111.107Z" fill="white"/>
<path d="M120.903 131.984H115.684V137.204H120.903V131.984Z" fill="white"/>
<path d="M115.684 147.643H120.903V145.033C120.903 144.341 120.628 143.677 120.139 143.188C119.649 142.698 118.985 142.423 118.293 142.423C117.601 142.423 116.937 142.698 116.448 143.188C115.959 143.677 115.684 144.341 115.684 145.033" fill="white"/>
<path d="M120.903 147.643H115.684V152.862H120.903V147.643Z" fill="white"/>
<path d="M120.903 152.862H115.684V158.081H120.903V152.862Z" fill="white"/>
<path d="M120.902 53.6924V58.9118H126.122V56.3021C126.122 55.61 125.847 54.9462 125.357 54.4567C124.868 53.9673 124.204 53.6924 123.512 53.6924" fill="white"/>
<path d="M126.122 58.9128H120.902V64.1323H126.122V58.9128Z" fill="white"/>
<path d="M126.122 64.1323H120.902V69.3518H126.122V64.1323Z" fill="white"/>
<path d="M126.122 69.3518H120.902V74.5712H126.122V69.3518Z" fill="white"/>
<path d="M126.122 74.5703H120.902V79.7897H126.122V74.5703Z" fill="white"/>
<path d="M126.122 79.7898H120.902V85.0092H126.122V79.7898Z" fill="white"/>
<path d="M126.121 85.0093H120.902V90.2287H123.511C124.204 90.2287 124.867 89.9538 125.357 89.4643C125.846 88.9749 126.121 88.3111 126.121 87.619" fill="white"/>
<path d="M120.902 100.668V105.887H126.122V103.277C126.122 102.585 125.847 101.922 125.357 101.432C124.868 100.943 124.204 100.668 123.512 100.668" fill="white"/>
<path d="M126.122 105.887H120.902V111.107H126.122V105.887Z" fill="white"/>
<path d="M126.122 111.107H120.902V116.326H126.122V111.107Z" fill="white"/>
<path d="M123.512 126.764C124.953 126.764 126.122 125.596 126.122 124.155C126.122 122.713 124.953 121.545 123.512 121.545C122.071 121.545 120.902 122.713 120.902 124.155C120.902 125.596 122.071 126.764 123.512 126.764Z" fill="white"/>
<path d="M126.122 131.984H120.902V137.204H126.122V131.984Z" fill="white"/>
<path d="M120.902 152.862V158.081H123.512C124.204 158.081 124.868 157.806 125.357 157.317C125.847 156.827 126.122 156.164 126.122 155.472C126.122 154.779 125.847 154.116 125.357 153.626C124.868 153.137 124.204 152.862 123.512 152.862" fill="white"/>
<path d="M126.121 64.1323V69.3518H128.731C129.423 69.3518 130.087 69.0768 130.576 68.5874C131.066 68.098 131.341 67.4342 131.341 66.742C131.341 66.0499 131.066 65.3861 130.576 64.8967C130.087 64.4073 129.423 64.1323 128.731 64.1323" fill="white"/>
<path d="M131.341 74.5703H126.121V79.7897H131.341V74.5703Z" fill="white"/>
<path d="M131.341 79.7898H126.121V85.0092H131.341V79.7898Z" fill="white"/>
<path d="M131.342 95.4482V90.2288H128.732C128.04 90.2288 127.376 90.5038 126.887 90.9932C126.397 91.4826 126.122 92.1464 126.122 92.8385C126.122 93.5307 126.397 94.1945 126.887 94.6839C127.376 95.1733 128.04 95.4482 128.732 95.4482" fill="white"/>
<path d="M131.341 105.887H126.121V111.107H131.341V105.887Z" fill="white"/>
<path d="M131.341 111.107H126.121V116.326H131.341V111.107Z" fill="white"/>
<path d="M131.341 131.984H126.121V137.204H131.341V131.984Z" fill="white"/>
<path d="M131.342 137.203H126.122V139.813C126.122 140.505 126.397 141.169 126.887 141.658C127.376 142.148 128.04 142.423 128.732 142.423C129.424 142.423 130.088 142.148 130.577 141.658C131.067 141.169 131.342 140.505 131.342 139.813" fill="white"/>
<path d="M131.342 152.862V147.643H128.732C128.04 147.643 127.376 147.918 126.887 148.407C126.397 148.896 126.122 149.56 126.122 150.252C126.122 150.944 126.397 151.608 126.887 152.098C127.376 152.587 128.04 152.862 128.732 152.862" fill="white"/>
<path d="M131.342 53.6924H136.561V51.0827C136.561 50.3905 136.286 49.7267 135.797 49.2373C135.307 48.7479 134.644 48.4729 133.952 48.4729C133.259 48.4729 132.596 48.7479 132.106 49.2373C131.617 49.7267 131.342 50.3905 131.342 51.0827" fill="white"/>
<path d="M136.562 53.6924H131.343V56.3021C131.343 56.9942 131.618 57.658 132.107 58.1475C132.597 58.6369 133.261 58.9118 133.953 58.9118C134.645 58.9118 135.309 58.6369 135.798 58.1475C136.288 57.658 136.562 56.9942 136.562 56.3021" fill="white"/>
<path d="M131.342 74.5703V79.7897H136.561V77.18C136.561 76.4879 136.286 75.8241 135.797 75.3347C135.307 74.8453 134.644 74.5703 133.952 74.5703" fill="white"/>
<path d="M136.561 79.7898H131.342V85.0092H136.561V79.7898Z" fill="white"/>
<path d="M136.561 85.009H131.342V90.2285H136.561V85.009Z" fill="white"/>
<path d="M136.562 90.2285H131.343V95.448H133.953C134.645 95.448 135.309 95.173 135.798 94.6836C136.288 94.1942 136.562 93.5304 136.562 92.8382" fill="white"/>
<path d="M131.342 105.887V111.107H136.561V108.497C136.561 107.805 136.286 107.141 135.797 106.652C135.307 106.162 134.644 105.887 133.952 105.887" fill="white"/>
<path d="M136.561 111.107H131.342V116.326H136.561V111.107Z" fill="white"/>
<path d="M136.561 116.325H131.342V121.545H136.561V116.325Z" fill="white"/>
<path d="M136.561 121.545H131.342V126.764H136.561V121.545Z" fill="white"/>
<path d="M136.561 126.764H131.342V131.984H136.561V126.764Z" fill="white"/>
<path d="M136.562 131.984H131.343V137.204H133.953C134.645 137.204 135.309 136.929 135.798 136.439C136.288 135.95 136.562 135.286 136.562 134.594" fill="white"/>
<path d="M136.561 147.643H131.342V152.862H136.561V147.643Z" fill="white"/>
<path d="M136.562 152.862H131.343V155.472C131.343 156.164 131.618 156.828 132.107 157.317C132.597 157.807 133.261 158.081 133.953 158.081C134.645 158.081 135.309 157.807 135.798 157.317C136.288 156.828 136.562 156.164 136.562 155.472" fill="white"/>
<path d="M139.172 74.5712C140.614 74.5712 141.782 73.4028 141.782 71.9615C141.782 70.5202 140.614 69.3518 139.172 69.3518C137.731 69.3518 136.562 70.5202 136.562 71.9615C136.562 73.4028 137.731 74.5712 139.172 74.5712Z" fill="white"/>
<path d="M136.562 100.668H141.782V98.058C141.782 97.3659 141.507 96.7021 141.018 96.2127C140.528 95.7232 139.864 95.4483 139.172 95.4483C138.48 95.4483 137.816 95.7232 137.327 96.2127C136.837 96.7021 136.562 97.3659 136.562 98.058" fill="white"/>
<path d="M141.781 105.887V100.668H136.562V103.277C136.562 103.97 136.837 104.633 137.326 105.123C137.816 105.612 138.479 105.887 139.172 105.887" fill="white"/>
<path d="M136.562 126.764V131.984H139.172C139.864 131.984 140.528 131.709 141.018 131.219C141.507 130.73 141.782 130.066 141.782 129.374C141.782 128.682 141.507 128.018 141.018 127.529C140.528 127.039 139.864 126.764 139.172 126.764" fill="white"/>
<path d="M136.562 147.643H141.782V142.423H139.172C138.48 142.423 137.816 142.698 137.327 143.188C136.837 143.677 136.562 144.341 136.562 145.033" fill="white"/>
<path d="M141.782 147.643H136.562V152.862H141.782V147.643Z" fill="white"/>
<path d="M146.996 64.1323V58.9129H144.386C143.694 58.9129 143.03 59.1878 142.541 59.6773C142.052 60.1667 141.777 60.8305 141.777 61.5226C141.777 62.2147 142.052 62.8785 142.541 63.368C143.03 63.8574 143.694 64.1323 144.386 64.1323" fill="white"/>
<path d="M141.781 85.0093H147.001V82.3996C147.001 81.7074 146.726 81.0436 146.236 80.5542C145.747 80.0648 145.083 79.7898 144.391 79.7898C143.699 79.7898 143.035 80.0648 142.546 80.5542C142.056 81.0436 141.781 81.7074 141.781 82.3996" fill="white"/>
<path d="M146.996 90.2285V85.0091H141.777V87.6188C141.777 88.3109 142.052 88.9747 142.541 89.4641C143.03 89.9536 143.694 90.2285 144.386 90.2285" fill="white"/>
<path d="M141.781 100.668V105.887H147.001V103.277C147.001 102.585 146.726 101.922 146.236 101.432C145.747 100.943 145.083 100.668 144.391 100.668" fill="white"/>
<path d="M147.001 105.887H141.781V111.107H147.001V105.887Z" fill="white"/>
<path d="M147.001 111.107H141.781V116.326H147.001V111.107Z" fill="white"/>
<path d="M146.996 121.545V116.325H141.777V118.935C141.777 119.627 142.052 120.291 142.541 120.781C143.03 121.27 143.694 121.545 144.386 121.545" fill="white"/>
<path d="M141.781 142.423V147.642H147.001V145.033C147.001 144.34 146.726 143.677 146.236 143.187C145.747 142.698 145.083 142.423 144.391 142.423" fill="white"/>
<path d="M147.001 147.643H141.781V152.862H147.001V147.643Z" fill="white"/>
<path d="M146.996 158.082V152.862H141.777V155.472C141.777 156.164 142.052 156.828 142.541 157.317C143.03 157.807 143.694 158.082 144.386 158.082" fill="white"/>
<path d="M146.996 53.6924H152.216V51.0827C152.216 50.3905 151.941 49.7267 151.451 49.2373C150.962 48.7479 150.298 48.4729 149.606 48.4729C148.914 48.4729 148.25 48.7479 147.76 49.2373C147.271 49.7267 146.996 50.3905 146.996 51.0827" fill="white"/>
<path d="M152.216 53.6924H146.996V58.9118H152.216V53.6924Z" fill="white"/>
<path d="M152.216 58.9128H146.996V64.1323H152.216V58.9128Z" fill="white"/>
<path d="M152.216 64.1323H146.996V69.3518H152.216V64.1323Z" fill="white"/>
<path d="M152.221 69.3518H147.001V71.9615C147.001 72.6537 147.276 73.3175 147.766 73.8069C148.255 74.2963 148.919 74.5712 149.611 74.5712C150.303 74.5712 150.967 74.2963 151.456 73.8069C151.946 73.3175 152.221 72.6537 152.221 71.9615" fill="white"/>
<path d="M146.996 85.0093V90.2287H152.216V87.619C152.216 86.9269 151.941 86.2631 151.451 85.7736C150.962 85.2842 150.298 85.0093 149.606 85.0093" fill="white"/>
<path d="M152.216 90.2285H146.996V95.448H152.216V90.2285Z" fill="white"/>
<path d="M152.221 100.668V95.4483H147.001V98.058C147.001 98.7501 147.276 99.4139 147.766 99.9034C148.255 100.393 148.919 100.668 149.611 100.668" fill="white"/>
<path d="M146.996 105.887V111.107H152.216V108.497C152.216 107.805 151.941 107.141 151.451 106.652C150.962 106.162 150.298 105.887 149.606 105.887" fill="white"/>
<path d="M152.216 111.107H146.996V116.326H152.216V111.107Z" fill="white"/>
<path d="M152.216 116.325H146.996V121.545H152.216V116.325Z" fill="white"/>
<path d="M152.216 121.545H146.996V126.764H152.216V121.545Z" fill="white"/>
<path d="M152.221 126.764H147.001V129.374C147.001 130.066 147.276 130.73 147.766 131.219C148.255 131.709 148.919 131.984 149.611 131.984C150.303 131.984 150.967 131.709 151.456 131.219C151.946 130.73 152.221 130.066 152.221 129.374" fill="white"/>
<path d="M149.606 142.423C151.047 142.423 152.216 141.254 152.216 139.813C152.216 138.372 151.047 137.203 149.606 137.203C148.165 137.203 146.996 138.372 146.996 139.813C146.996 141.254 148.165 142.423 149.606 142.423Z" fill="white"/>
<path d="M152.216 147.643H146.996V152.862H152.216V147.643Z" fill="white"/>
<path d="M152.221 152.862H147.001V158.081H149.611C150.303 158.081 150.967 157.807 151.456 157.317C151.946 156.828 152.221 156.164 152.221 155.472" fill="white"/>
<path d="M152.221 53.6924V58.9118H157.44V56.3021C157.44 55.61 157.165 54.9462 156.676 54.4567C156.186 53.9673 155.523 53.6924 154.83 53.6924" fill="white"/>
<path d="M157.44 58.9128H152.221V64.1323H157.44V58.9128Z" fill="white"/>
<path d="M157.441 64.1323H152.222V69.3518H154.832C155.524 69.3518 156.188 69.0768 156.677 68.5874C157.166 68.098 157.441 67.4342 157.441 66.742" fill="white"/>
<path d="M152.221 95.4482V100.668H154.83C155.523 100.668 156.186 100.393 156.676 99.9033C157.165 99.4139 157.44 98.7501 157.44 98.058C157.44 97.3658 157.165 96.702 156.676 96.2126C156.186 95.7232 155.523 95.4482 154.83 95.4482" fill="white"/>
<path d="M152.221 111.107V116.326H157.44V113.717C157.44 113.025 157.165 112.361 156.676 111.871C156.186 111.382 155.523 111.107 154.83 111.107" fill="white"/>
<path d="M157.44 116.325H152.221V121.545H157.44V116.325Z" fill="white"/>
<path d="M157.441 121.545H152.222V126.764H154.832C155.524 126.764 156.188 126.489 156.677 126C157.166 125.511 157.441 124.847 157.441 124.155" fill="white"/>
<path d="M154.83 137.204C156.272 137.204 157.44 136.035 157.44 134.594C157.44 133.153 156.272 131.984 154.83 131.984C153.389 131.984 152.221 133.153 152.221 134.594C152.221 136.035 153.389 137.204 154.83 137.204Z" fill="white"/>
<path d="M152.221 147.642V152.862H154.83C155.523 152.862 156.186 152.587 156.676 152.097C157.165 151.608 157.44 150.944 157.44 150.252C157.44 149.56 157.165 148.896 156.676 148.407C156.186 147.917 155.523 147.642 154.83 147.642" fill="white"/>
</mask>
<g mask="url(#mask0_151_52316)">
<path d="M163.312 0.846436H0.205078V163.954H163.312V0.846436Z" fill="url(#paint0_radial_151_52316)"/>
</g>
<mask id="mask1_151_52316" style="mask-type:luminance" maskUnits="userSpaceOnUse" x="6" y="6" width="37" height="38">
<path fill-rule="evenodd" clip-rule="evenodd" d="M6.07617 19.5633V30.036C6.07617 33.508 7.45539 36.8377 9.91041 39.2927C11.126 40.5083 12.5691 41.4726 14.1574 42.1305C15.7457 42.7883 17.448 43.127 19.1671 43.127H29.6398C33.1117 43.127 36.4415 41.7477 38.8965 39.2927C41.3515 36.8377 42.7307 33.508 42.7307 30.036V19.5633C42.7307 17.8442 42.3921 16.1419 41.7342 14.5536C41.0764 12.9654 40.1121 11.5223 38.8965 10.3067C37.6809 9.09105 36.2377 8.12678 34.6495 7.4689C33.0612 6.81102 31.3589 6.47241 29.6398 6.47241H19.1671C17.448 6.47241 15.7457 6.81102 14.1574 7.4689C12.5691 8.12678 11.126 9.09105 9.91041 10.3067C7.45539 12.7617 6.07617 16.0914 6.07617 19.5633ZM19.1671 11.7088H29.6398C31.723 11.7088 33.7208 12.5363 35.1938 14.0093C36.6668 15.4823 37.4944 17.4802 37.4944 19.5633V30.036C37.4944 32.1192 36.6668 34.117 35.1938 35.59C33.7208 37.0631 31.723 37.8906 29.6398 37.8906H19.1671C17.0839 37.8906 15.0861 37.0631 13.6131 35.59C12.1401 34.117 11.3125 32.1192 11.3125 30.036V19.5633C11.3125 17.4802 12.1401 15.4823 13.6131 14.0093C15.0861 12.5363 17.0839 11.7088 19.1671 11.7088Z" fill="white"/>
</mask>
<g mask="url(#mask1_151_52316)">
<path d="M42.7307 6.47241H6.07617V43.127H42.7307V6.47241Z" fill="#A049FC"/>
</g>
<mask id="mask2_151_52316" style="mask-type:luminance" maskUnits="userSpaceOnUse" x="16" y="16" width="17" height="17">
<path d="M24.4073 32.6546C28.7452 32.6546 32.2618 29.138 32.2618 24.8001C32.2618 20.4622 28.7452 16.9456 24.4073 16.9456C20.0693 16.9456 16.5527 20.4622 16.5527 24.8001C16.5527 29.138 20.0693 32.6546 24.4073 32.6546Z" fill="white"/>
</mask>
<g mask="url(#mask2_151_52316)">
<path d="M32.2618 16.9456H16.5527V32.6546H32.2618V16.9456Z" fill="#5910A6"/>
</g>
<mask id="mask3_151_52316" style="mask-type:luminance" maskUnits="userSpaceOnUse" x="121" y="6" width="37" height="38">
<path fill-rule="evenodd" clip-rule="evenodd" d="M144.837 6.47241L134.364 6.47241C130.892 6.47241 127.562 7.85163 125.107 10.3067C122.652 12.7617 121.273 16.0914 121.273 19.5633V30.036C121.273 33.508 122.652 36.8377 125.107 39.2927C127.562 41.7477 130.892 43.127 134.364 43.127H144.837C146.556 43.127 148.258 42.7883 149.847 42.1305C151.435 41.4726 152.878 40.5083 154.093 39.2927C155.309 38.0771 156.273 36.634 156.931 35.0457C157.589 33.4575 157.928 31.7552 157.928 30.036V19.5633C157.928 16.0914 156.549 12.7617 154.093 10.3067C151.638 7.85163 148.309 6.47241 144.837 6.47241ZM152.691 19.5633V30.036C152.691 32.1192 151.864 34.117 150.391 35.59C148.918 37.0631 146.92 37.8906 144.837 37.8906H134.364C132.281 37.8906 130.283 37.0631 128.81 35.59C127.337 34.117 126.51 32.1192 126.51 30.036V19.5633C126.51 17.4802 127.337 15.4823 128.81 14.0093C130.283 12.5363 132.281 11.7088 134.364 11.7088L144.837 11.7088C146.92 11.7088 148.918 12.5363 150.391 14.0093C151.864 15.4823 152.691 17.4802 152.691 19.5633Z" fill="white"/>
</mask>
<g mask="url(#mask3_151_52316)">
<path d="M157.928 6.47266H121.273V43.1272H157.928V6.47266Z" fill="#A049FC"/>
</g>
<mask id="mask4_151_52316" style="mask-type:luminance" maskUnits="userSpaceOnUse" x="131" y="16" width="17" height="17">
<path d="M131.748 24.8001C131.748 29.138 135.265 32.6546 139.602 32.6546C143.94 32.6546 147.457 29.138 147.457 24.8001C147.457 20.4622 143.94 16.9456 139.602 16.9456C135.265 16.9456 131.748 20.4622 131.748 24.8001Z" fill="white"/>
</mask>
<g mask="url(#mask4_151_52316)">
<path d="M147.453 16.9456H131.744V32.6546H147.453V16.9456Z" fill="#5910A6"/>
</g>
<mask id="mask5_151_52316" style="mask-type:luminance" maskUnits="userSpaceOnUse" x="6" y="121" width="37" height="38">
<path fill-rule="evenodd" clip-rule="evenodd" d="M19.1671 158.328H29.6398C33.1117 158.328 36.4415 156.949 38.8965 154.494C40.1121 153.279 41.0763 151.835 41.7342 150.247C42.3921 148.659 42.7307 146.957 42.7307 145.237V134.765C42.7307 131.293 41.3515 127.963 38.8965 125.508C36.4415 123.053 33.1117 121.674 29.6398 121.674H19.1671C15.6952 121.674 12.3654 123.053 9.91041 125.508C7.45539 127.963 6.07617 131.293 6.07617 134.765L6.07617 145.237C6.07617 146.957 6.41478 148.659 7.07266 150.247C7.73054 151.835 8.69481 153.279 9.91041 154.494C12.3654 156.949 15.6952 158.328 19.1671 158.328ZM11.3125 145.237L11.3125 134.765C11.3125 132.682 12.1401 130.684 13.6131 129.211C15.0861 127.738 17.0839 126.91 19.1671 126.91H29.6398C31.723 126.91 33.7208 127.738 35.1938 129.211C36.6668 130.684 37.4944 132.682 37.4944 134.765V145.237C37.4944 147.321 36.6668 149.318 35.1938 150.791C33.7208 152.264 31.723 153.092 29.6398 153.092H19.1671C17.0839 153.092 15.0861 152.264 13.6131 150.791C12.1401 149.318 11.3125 147.321 11.3125 145.237Z" fill="white"/>
</mask>
<g mask="url(#mask5_151_52316)">
<path d="M42.7307 121.674H6.07617V158.328H42.7307V121.674Z" fill="#A049FC"/>
</g>
<mask id="mask6_151_52316" style="mask-type:luminance" maskUnits="userSpaceOnUse" x="16" y="132" width="17" height="16">
<path d="M32.2618 140.001C32.2618 135.663 28.7452 132.146 24.4073 132.146C20.0693 132.146 16.5527 135.663 16.5527 140.001C16.5527 144.339 20.0693 147.855 24.4073 147.855C28.7452 147.855 32.2618 144.339 32.2618 140.001Z" fill="white"/>
</mask>
<g mask="url(#mask6_151_52316)">
<path d="M32.2618 132.146H16.5527V147.855H32.2618V132.146Z" fill="#5910A6"/>
</g>
<defs>
<radialGradient id="paint0_radial_151_52316" cx="0" cy="0" r="1" gradientUnits="userSpaceOnUse" gradientTransform="translate(51.922 -70.1842) rotate(92.2531) scale(290.924 463.589)">
<stop offset="1" stop-color="#50099B"/>
<stop stop-color="#A049FC"/>
</radialGradient>
</defs>
</svg>
