<svg width="20" height="20" viewBox="0 0 20 20" fill="none" xmlns="http://www.w3.org/2000/svg">
<path d="M10.1018 14.7688L14.3768 17.3977C14.4877 17.465 14.6161 17.498 14.7457 17.4924C14.8753 17.4867 15.0004 17.4428 15.1051 17.3662C15.2098 17.2895 15.2894 17.1835 15.3338 17.0616C15.3783 16.9397 15.3856 16.8074 15.3549 16.6813L14.1924 11.7758L17.9971 8.49458C18.0941 8.4094 18.164 8.29768 18.1983 8.17321C18.2325 8.04874 18.2295 7.91696 18.1897 7.79416C18.1499 7.67135 18.075 7.56289 17.9743 7.48216C17.8736 7.40143 17.7514 7.35197 17.6229 7.33989L12.6299 6.93364L10.7064 2.27739C10.6574 2.15726 10.5737 2.05446 10.466 1.9821C10.3583 1.90974 10.2315 1.87109 10.1018 1.87109C9.97201 1.87109 9.8452 1.90974 9.73751 1.9821C9.62981 2.05446 9.54611 2.15726 9.49707 2.27739L7.57364 6.93364L2.58067 7.33989C2.45126 7.35125 2.32808 7.40049 2.2265 7.48146C2.12492 7.56243 2.04946 7.67154 2.00953 7.79515C1.96961 7.91876 1.96699 8.0514 2.00201 8.17649C2.03703 8.30158 2.10814 8.41357 2.20645 8.49848L6.01114 11.7797L4.84863 16.6813C4.8179 16.8074 4.82523 16.9397 4.86969 17.0616C4.91416 17.1835 4.99376 17.2895 5.09844 17.3662C5.20312 17.4428 5.32818 17.4867 5.45782 17.4924C5.58745 17.498 5.71584 17.465 5.82676 17.3977L10.1018 14.7688Z" fill="#F3E7FF" stroke="#A049FC" stroke-width="1.5" stroke-linecap="round" stroke-linejoin="round"/>
</svg>
