<svg width="25" height="25" viewBox="0 0 25 25" fill="none" xmlns="http://www.w3.org/2000/svg">
<g clip-path="url(#clip0_932_4737)">
<path d="M12.5 13.25C14.1569 13.25 15.5 11.9069 15.5 10.25C15.5 8.59315 14.1569 7.25 12.5 7.25C10.8431 7.25 9.5 8.59315 9.5 10.25C9.5 11.9069 10.8431 13.25 12.5 13.25Z" stroke="#787878" stroke-width="1.5" stroke-linecap="round" stroke-linejoin="round"/>
<path d="M20 10.25C20 17 12.5 22.25 12.5 22.25C12.5 22.25 5 17 5 10.25C5 8.26088 5.79018 6.35322 7.1967 4.9467C8.60322 3.54018 10.5109 2.75 12.5 2.75C14.4891 2.75 16.3968 3.54018 17.8033 4.9467C19.2098 6.35322 20 8.26088 20 10.25Z" stroke="#787878" stroke-width="1.5" stroke-linecap="round" stroke-linejoin="round"/>
</g>
<defs>
<clipPath id="clip0_932_4737">
<rect width="24" height="24" fill="white" transform="translate(0.5 0.5)"/>
</clipPath>
</defs>
</svg>
