<svg width="25" height="25" viewBox="0 0 25 25" fill="none" xmlns="http://www.w3.org/2000/svg">
<g clip-path="url(#clip0_932_3819)">
<g clip-path="url(#clip1_932_3819)">
<path d="M10.25 5H5.75C5.33579 5 5 5.33579 5 5.75V10.25C5 10.6642 5.33579 11 5.75 11H10.25C10.6642 11 11 10.6642 11 10.25V5.75C11 5.33579 10.6642 5 10.25 5Z" stroke="#1F1F1F" stroke-opacity="0.4" stroke-width="1.5" stroke-linecap="round" stroke-linejoin="round"/>
<path d="M19.25 5H14.75C14.3358 5 14 5.33579 14 5.75V10.25C14 10.6642 14.3358 11 14.75 11H19.25C19.6642 11 20 10.6642 20 10.25V5.75C20 5.33579 19.6642 5 19.25 5Z" stroke="#1F1F1F" stroke-opacity="0.4" stroke-width="1.5" stroke-linecap="round" stroke-linejoin="round"/>
<path d="M10.25 14H5.75C5.33579 14 5 14.3358 5 14.75V19.25C5 19.6642 5.33579 20 5.75 20H10.25C10.6642 20 11 19.6642 11 19.25V14.75C11 14.3358 10.6642 14 10.25 14Z" stroke="#1F1F1F" stroke-opacity="0.4" stroke-width="1.5" stroke-linecap="round" stroke-linejoin="round"/>
<path d="M19.25 14H14.75C14.3358 14 14 14.3358 14 14.75V19.25C14 19.6642 14.3358 20 14.75 20H19.25C19.6642 20 20 19.6642 20 19.25V14.75C20 14.3358 19.6642 14 19.25 14Z" stroke="#1F1F1F" stroke-opacity="0.4" stroke-width="1.5" stroke-linecap="round" stroke-linejoin="round"/>
</g>
</g>
<defs>
<clipPath id="clip0_932_3819">
<rect width="24" height="24" fill="white" transform="translate(0.5 0.5)"/>
</clipPath>
<clipPath id="clip1_932_3819">
<rect width="24" height="24" fill="white" transform="translate(0.5 0.5)"/>
</clipPath>
</defs>
</svg>
