<svg width="24" height="24" viewBox="0 0 24 24" fill="none" xmlns="http://www.w3.org/2000/svg">
<path d="M12 18C12 17.4032 12.2371 16.8309 12.659 16.409C13.081 15.987 13.6533 15.75 14.25 15.75H18.5822C19.0918 15.75 19.5864 15.5771 19.9849 15.2595C20.3834 14.9419 20.6623 14.4983 20.7759 14.0015C20.9308 13.3194 21.006 12.6216 21 11.9222C20.9578 6.97028 16.86 2.95028 11.9062 2.99997C9.53558 3.02466 7.27041 3.98377 5.60281 5.66892C3.9352 7.35408 2.99987 9.62917 3 12C3 15.9197 5.50594 18.885 9 20.1197C9.33924 20.2396 9.7023 20.2764 10.0587 20.2271C10.4151 20.1777 10.7545 20.0436 11.0484 19.8359C11.3422 19.6283 11.582 19.3532 11.7476 19.0337C11.9132 18.7143 11.9997 18.3598 12 18Z" stroke="#5910A6" stroke-width="1.5" stroke-linecap="round" stroke-linejoin="round"/>
<path d="M12 8.25C12.6213 8.25 13.125 7.74632 13.125 7.125C13.125 6.50368 12.6213 6 12 6C11.3787 6 10.875 6.50368 10.875 7.125C10.875 7.74632 11.3787 8.25 12 8.25Z" fill="#5910A6"/>
<path d="M7.875 10.5C8.49632 10.5 9 9.99632 9 9.375C9 8.75368 8.49632 8.25 7.875 8.25C7.25368 8.25 6.75 8.75368 6.75 9.375C6.75 9.99632 7.25368 10.5 7.875 10.5Z" fill="#5910A6"/>
<path d="M7.875 15.75C8.49632 15.75 9 15.2463 9 14.625C9 14.0037 8.49632 13.5 7.875 13.5C7.25368 13.5 6.75 14.0037 6.75 14.625C6.75 15.2463 7.25368 15.75 7.875 15.75Z" fill="#5910A6"/>
<path d="M16.125 10.5C16.7463 10.5 17.25 9.99632 17.25 9.375C17.25 8.75368 16.7463 8.25 16.125 8.25C15.5037 8.25 15 8.75368 15 9.375C15 9.99632 15.5037 10.5 16.125 10.5Z" fill="#5910A6"/>
</svg>
