<svg width="24" height="24" viewBox="0 0 24 24" fill="none" xmlns="http://www.w3.org/2000/svg">
<path d="M9.75 11.9006C9.15044 10.8155 8.90167 9.57146 9.0379 8.33932C9.17412 7.10718 9.68865 5.94748 10.5107 5.01964C11.3328 4.09181 12.4221 3.44138 13.6289 3.15778C14.8357 2.87418 16.1007 2.97133 17.25 3.43588L13.5 7.49994L14.0306 9.96931L16.5 10.4999L20.5641 6.74994C21.0286 7.89925 21.1258 9.16424 20.8422 10.371C20.5586 11.5778 19.9081 12.6671 18.9803 13.4892C18.0525 14.3113 16.8928 14.8258 15.6606 14.962C14.4285 15.0983 13.1844 14.8495 12.0994 14.2499L6.84375 20.3437C6.42106 20.7664 5.84777 21.0038 5.25 21.0038C4.65222 21.0038 4.07894 20.7664 3.65625 20.3437C3.23356 19.921 2.99609 19.3477 2.99609 18.7499C2.99609 18.1522 3.23356 17.5789 3.65625 17.1562L9.75 11.9006Z" stroke="#5910A6" stroke-width="1.5" stroke-linecap="round" stroke-linejoin="round"/>
</svg>
