<svg width="24" height="24" viewBox="0 0 24 24" fill="none" xmlns="http://www.w3.org/2000/svg">
<path d="M15.75 10.5C16.9926 10.5 18 9.49264 18 8.25C18 7.00736 16.9926 6 15.75 6C14.5074 6 13.5 7.00736 13.5 8.25C13.5 9.49264 14.5074 10.5 15.75 10.5Z" fill="#C58FFD" stroke="#5910A6" stroke-width="1.5" stroke-linecap="round" stroke-linejoin="round"/>
<path d="M18.9834 12.3862L15.9497 19.0603C15.8901 19.1914 15.7941 19.3025 15.6731 19.3805C15.5521 19.4584 15.4111 19.4999 15.2672 19.5H13.5C13.3011 19.5 13.1103 19.421 12.9697 19.2803C12.829 19.1397 12.75 18.9489 12.75 18.75V13.0003" fill="#C58FFD"/>
<path d="M18.9834 12.3862L15.9497 19.0603C15.8901 19.1914 15.7941 19.3025 15.6731 19.3805C15.5521 19.4584 15.4111 19.4999 15.2672 19.5H13.5C13.3011 19.5 13.1103 19.421 12.9697 19.2803C12.829 19.1397 12.75 18.9489 12.75 18.75V13.0003" stroke="#5910A6" stroke-width="1.5" stroke-linecap="round" stroke-linejoin="round"/>
<path d="M2.25 10.6144V5.88562C2.25001 5.70817 2.31294 5.53647 2.4276 5.40104C2.54226 5.26561 2.70123 5.17522 2.87625 5.14594L15.75 3C17.1424 3 18.4777 3.55312 19.4623 4.53769C20.4469 5.52226 21 6.85761 21 8.25C21 9.64239 20.4469 10.9777 19.4623 11.9623C18.4777 12.9469 17.1424 13.5 15.75 13.5L2.87625 11.3541C2.70123 11.3248 2.54226 11.2344 2.4276 11.099C2.31294 10.9635 2.25001 10.7918 2.25 10.6144Z" stroke="#5910A6" stroke-width="1.5" stroke-linecap="round" stroke-linejoin="round"/>
<path d="M14.25 19.5V20.25C14.25 21.0456 14.5661 21.8087 15.1287 22.3713C15.6913 22.9339 16.4544 23.25 17.25 23.25H18.75" stroke="#5910A6" stroke-width="1.5" stroke-linecap="round" stroke-linejoin="round"/>
</svg>
