<svg width="24" height="24" viewBox="0 0 24 24" fill="none" xmlns="http://www.w3.org/2000/svg">
<path d="M9.75 12.75V15.375C9.75 16.2701 9.39442 17.1286 8.76149 17.7615C8.12855 18.3944 7.27011 18.75 6.375 18.75C5.47989 18.75 4.62145 18.3944 3.98851 17.7615C3.35558 17.1286 3 16.2701 3 15.375V12.75" fill="#C58FFD"/>
<path d="M9.75 12.75V15.375C9.75 16.2701 9.39442 17.1285 8.76149 17.7615C8.12855 18.3944 7.27011 18.75 6.375 18.75C5.47989 18.75 4.62145 18.3944 3.98851 17.7615C3.35558 17.1285 3 16.2701 3 15.375V12.75" stroke="#5910A6" stroke-width="1.5" stroke-linecap="round" stroke-linejoin="round"/>
<path d="M21 12.75V15.375C21 16.2701 20.6444 17.1286 20.0115 17.7615C19.3786 18.3944 18.5201 18.75 17.625 18.75C16.7299 18.75 15.8715 18.3944 15.2385 17.7615C14.6056 17.1286 14.25 16.2701 14.25 15.375V12.75" fill="#C58FFD"/>
<path d="M21 12.75V15.375C21 16.2701 20.6444 17.1285 20.0115 17.7615C19.3785 18.3944 18.5201 18.75 17.625 18.75C16.7299 18.75 15.8715 18.3944 15.2385 17.7615C14.6056 17.1285 14.25 16.2701 14.25 15.375V12.75" stroke="#5910A6" stroke-width="1.5" stroke-linecap="round" stroke-linejoin="round"/>
<path d="M18.75 4.5C19.3467 4.5 19.919 4.73705 20.341 5.15901C20.7629 5.58097 21 6.15326 21 6.75V12.75H3V6.75C3 6.15326 3.23705 5.58097 3.65901 5.15901C4.08097 4.73705 4.65326 4.5 5.25 4.5" stroke="#5910A6" stroke-width="1.5" stroke-linecap="round" stroke-linejoin="round"/>
<path d="M15 12.75L20.0119 17.7619" stroke="#5910A6" stroke-width="1.5" stroke-linecap="round" stroke-linejoin="round"/>
<path d="M3.75 12.75L8.76187 17.7619" stroke="#5910A6" stroke-width="1.5" stroke-linecap="round" stroke-linejoin="round"/>
</svg>
