<svg width="24" height="24" viewBox="0 0 24 24" fill="none" xmlns="http://www.w3.org/2000/svg">
<path d="M14.0703 14.25L18.0181 18.7313C18.4129 19.1258 18.9232 19.3843 19.4748 19.4692C20.0265 19.554 20.5909 19.4608 21.086 19.2031C21.5811 18.9453 21.9811 18.5365 22.228 18.0359C22.4749 17.5353 22.5559 16.9691 22.4591 16.4194L20.9253 8.53125" fill="#C58FFD"/>
<path d="M14.0703 14.25L18.0181 18.7313C18.4129 19.1258 18.9232 19.3843 19.4748 19.4692C20.0265 19.554 20.5909 19.4608 21.086 19.2031C21.5811 18.9453 21.9811 18.5365 22.228 18.0359C22.4749 17.5353 22.5559 16.9691 22.4591 16.4194L20.9253 8.53125" stroke="#5910A6" stroke-width="1.5" stroke-linecap="round" stroke-linejoin="round"/>
<path d="M9.92854 14.25L5.98072 18.7313C5.58595 19.1258 5.07568 19.3843 4.52401 19.4692C3.97233 19.554 3.40798 19.4608 2.91288 19.2031C2.41779 18.9453 2.01774 18.5365 1.77083 18.0359C1.52391 17.5353 1.44298 16.9691 1.53979 16.4194L3.07354 8.53125C3.27167 7.40377 3.86025 6.38197 4.73615 5.64491C5.61206 4.90785 6.71941 4.50254 7.86416 4.5H16.1245C17.4174 4.5 18.6574 5.01361 19.5716 5.92785C20.4859 6.84209 20.9995 8.08207 20.9995 9.375C20.9995 10.6679 20.4859 11.9079 19.5716 12.8221C18.6574 13.7364 17.4174 14.25 16.1245 14.25H9.92854Z" fill="#FDFDFD" stroke="#5910A6" stroke-width="1.5" stroke-linecap="round" stroke-linejoin="round"/>
<path d="M14.25 9.75H16.5" stroke="#5910A6" stroke-width="1.5" stroke-linecap="round" stroke-linejoin="round"/>
<path d="M6.75 9.75H9.75" stroke="#5910A6" stroke-width="1.5" stroke-linecap="round" stroke-linejoin="round"/>
<path d="M8.25 8.25V11.25" stroke="#5910A6" stroke-width="1.5" stroke-linecap="round" stroke-linejoin="round"/>
</svg>
