<svg width="24" height="24" viewBox="0 0 24 24" fill="none" xmlns="http://www.w3.org/2000/svg">
<path d="M13.5 10.5V4.5C13.5 4.30109 13.579 4.11032 13.7197 3.96967C13.8603 3.82902 14.0511 3.75 14.25 3.75H15C16.7902 3.75 18.5071 4.46116 19.773 5.72703C21.0388 6.9929 21.75 8.70979 21.75 10.5" fill="#C58FFD"/>
<path d="M13.5 10.5V4.5C13.5 4.30109 13.579 4.11032 13.7197 3.96967C13.8603 3.82902 14.0511 3.75 14.25 3.75H15C16.7902 3.75 18.5071 4.46116 19.773 5.72703C21.0388 6.9929 21.75 8.70979 21.75 10.5" stroke="#5910A6" stroke-width="1.5" stroke-linecap="round" stroke-linejoin="round"/>
<path d="M4.5 10.5H21.75C21.75 12.2902 21.0388 14.0071 19.773 15.273C18.5071 16.5388 16.7902 17.25 15 17.25H11.25C9.45979 17.25 7.7429 16.5388 6.47703 15.273C5.21116 14.0071 4.5 12.2902 4.5 10.5Z" stroke="#5910A6" stroke-width="1.5" stroke-linecap="round" stroke-linejoin="round"/>
<path d="M1.5 7.5C2.29565 7.5 3.05871 7.81607 3.62132 8.37868C4.18393 8.94129 4.5 9.70435 4.5 10.5" stroke="#5910A6" stroke-width="1.5" stroke-linecap="round" stroke-linejoin="round"/>
<path d="M8.25 22.5C9.07843 22.5 9.75 21.8284 9.75 21C9.75 20.1716 9.07843 19.5 8.25 19.5C7.42157 19.5 6.75 20.1716 6.75 21C6.75 21.8284 7.42157 22.5 8.25 22.5Z" fill="#5910A6"/>
<path d="M18 22.5C18.8284 22.5 19.5 21.8284 19.5 21C19.5 20.1716 18.8284 19.5 18 19.5C17.1716 19.5 16.5 20.1716 16.5 21C16.5 21.8284 17.1716 22.5 18 22.5Z" fill="#5910A6"/>
<path d="M13.5 10.5L19.6341 5.59216" stroke="#5910A6" stroke-width="1.5" stroke-linecap="round" stroke-linejoin="round"/>
</svg>
