<svg width="16" height="15" viewBox="0 0 16 15" fill="none" xmlns="http://www.w3.org/2000/svg">
<g clip-path="url(#clip0_932_598)">
<path d="M11.0924 0.0480932C9.7124 -0.0162818 6.29427 -0.0131568 4.91302 0.0480932C3.69927 0.104968 2.62865 0.398093 1.76552 1.26122C0.323023 2.70372 0.507398 4.64747 0.507398 7.4981C0.507398 10.4156 0.344898 12.3143 1.76552 13.735C3.21365 15.1825 5.18552 14.9931 8.0024 14.9931C10.8924 14.9931 11.8899 14.995 12.9118 14.5993C14.3011 14.06 15.3499 12.8181 15.4524 10.5875C15.5174 9.20684 15.5136 5.78934 15.4524 4.40809C15.3286 1.77497 13.9155 0.178093 11.0924 0.0480932ZM13.2768 12.7806C12.3311 13.7262 11.0193 13.6418 7.98427 13.6418C4.85927 13.6418 3.60615 13.6881 2.69177 12.7712C1.63865 11.7231 1.82927 10.04 1.82927 7.4881C1.82927 4.03497 1.4749 1.54809 4.94052 1.37059C5.73677 1.34247 5.97115 1.33309 7.97552 1.33309L8.00365 1.35184C11.3343 1.35184 13.9474 1.00309 14.1043 4.46809C14.1399 5.25872 14.148 5.49622 14.148 7.49747C14.1474 10.5862 14.2061 11.8468 13.2768 12.7806Z" fill="#7E7E7E"/>
<path d="M9.6449 15V9.86872H11.4132L11.6785 7.86838H9.6449V6.59145C9.6449 6.01249 9.80935 5.61793 10.663 5.61793L11.7501 5.61749V3.82832C11.5621 3.80453 10.9168 3.75 10.1657 3.75C8.59742 3.75 7.52372 4.68204 7.52372 6.39334V7.86838H5.75006V9.86872H7.52372V15H9.6449Z" fill="#7E7E7E"/>
</g>
<defs>
<clipPath id="clip0_932_598">
<rect width="15" height="15" fill="white" transform="translate(0.5)"/>
</clipPath>
</defs>
</svg>
