<svg width="17" height="16" viewBox="0 0 17 16" fill="none" xmlns="http://www.w3.org/2000/svg">
<path d="M14.3538 11.3537L11.3538 14.3537C11.2599 14.4476 11.1327 14.5003 11 14.5003C10.8673 14.5003 10.7401 14.4476 10.6462 14.3537C10.5524 14.2599 10.4997 14.1327 10.4997 14C10.4997 13.8673 10.5524 13.7401 10.6462 13.6462L12.7931 11.5H5C4.86739 11.5 4.74021 11.4473 4.64645 11.3536C4.55268 11.2598 4.5 11.1326 4.5 11V2C4.5 1.86739 4.55268 1.74021 4.64645 1.64645C4.74021 1.55268 4.86739 1.5 5 1.5C5.13261 1.5 5.25979 1.55268 5.35355 1.64645C5.44732 1.74021 5.5 1.86739 5.5 2V10.5H12.7931L10.6462 8.35375C10.5524 8.25993 10.4997 8.13268 10.4997 8C10.4997 7.86732 10.5524 7.74007 10.6462 7.64625C10.7401 7.55243 10.8673 7.49972 11 7.49972C11.1327 7.49972 11.2599 7.55243 11.3538 7.64625L14.3538 10.6462C14.4002 10.6927 14.4371 10.7478 14.4623 10.8085C14.4874 10.8692 14.5004 10.9343 14.5004 11C14.5004 11.0657 14.4874 11.1308 14.4623 11.1915C14.4371 11.2522 14.4002 11.3073 14.3538 11.3537Z" fill="black"/>
</svg>
