<svg width="16" height="15" viewBox="0 0 16 15" fill="none" xmlns="http://www.w3.org/2000/svg">
<path d="M11.0924 0.0471167C9.7124 -0.0172583 6.29427 -0.0141333 4.91302 0.0471167C3.69927 0.103992 2.62865 0.397117 1.76552 1.26024C0.323023 2.70274 0.507398 4.64649 0.507398 7.49712C0.507398 10.4146 0.344898 12.3134 1.76552 13.734C3.21365 15.1815 5.18552 14.9921 8.0024 14.9921C10.8924 14.9921 11.8899 14.994 12.9118 14.5984C14.3011 14.059 15.3499 12.8171 15.4524 10.5865C15.5174 9.20587 15.5136 5.78837 15.4524 4.40712C15.3286 1.77399 13.9155 0.177117 11.0924 0.0471167ZM13.2768 12.7796C12.3311 13.7252 11.0193 13.6409 7.98427 13.6409C4.85927 13.6409 3.60615 13.6871 2.69177 12.7702C1.63865 11.7221 1.82927 10.039 1.82927 7.48712C1.82927 4.03399 1.4749 1.54712 4.94052 1.36962C5.73677 1.34149 5.97115 1.33212 7.97552 1.33212L8.00365 1.35087C11.3343 1.35087 13.9474 1.00212 14.1043 4.46712C14.1399 5.25774 14.148 5.49524 14.148 7.49649C14.1474 10.5852 14.2061 11.8459 13.2768 12.7796Z" fill="#7E7E7E"/>
<path d="M12.3748 5.18889C12.0727 5.32692 11.7507 5.41841 11.415 5.46284C11.7604 5.24813 12.0239 4.91072 12.1478 4.50404C11.8259 4.70394 11.4704 4.84514 11.0916 4.92394C10.7859 4.58495 10.3502 4.375 9.87485 4.375C8.95267 4.375 8.21025 5.15452 8.21025 6.11014C8.21025 6.24764 8.22142 6.37986 8.24884 6.50572C6.86404 6.43538 5.63868 5.74418 4.81552 4.69125C4.67181 4.95091 4.58751 5.24813 4.58751 5.56808C4.58751 6.16885 4.88458 6.70139 5.32739 7.00971C5.05978 7.00442 4.79724 6.92351 4.57482 6.79606C4.57482 6.80135 4.57482 6.80822 4.57482 6.8151C4.57482 7.65808 5.1522 8.35827 5.90935 8.51957C5.77376 8.55817 5.62599 8.57668 5.47263 8.57668C5.36599 8.57668 5.25833 8.57034 5.15728 8.54707C5.3731 9.23404 5.98552 9.73909 6.71372 9.75548C6.147 10.2172 5.42743 10.4953 4.64845 10.4953C4.51185 10.4953 4.38083 10.489 4.24982 10.4715C4.98767 10.9671 5.86212 11.25 6.80513 11.25C9.87028 11.25 11.5461 8.60577 11.5461 6.31375C11.5461 6.23707 11.5435 6.16303 11.54 6.08952C11.8706 5.84519 12.1483 5.54005 12.3748 5.18889Z" fill="#7E7E7E"/>
</svg>
